<svg width="55" height="55" viewBox="0 0 55 55" fill="none" xmlns="http://www.w3.org/2000/svg">
<path d="M25.2654 20.8129L25.2683 55.0055L9.66159 55.0074C4.50969 55.0074 0.299525 50.9754 0.0152943 45.8946L0 45.3463V20.8129H25.2654ZM29.7245 38.6494H54.9958L54.9982 45.3463C54.9976 50.6818 50.6722 55.0074 45.3365 55.0074L29.7275 55.0055L29.7245 38.6494ZM45.3384 0.000732422C50.4903 0.000732422 54.7005 4.03281 54.9847 9.11368L55 9.66193L54.9958 34.1903H29.7245L29.7275 0.000732422H45.3384ZM25.2683 0.000732422L25.2654 16.3538H0L0.00178536 9.66198C0.00240643 4.32641 4.32778 0.000732422 9.66335 0.000732422H25.2683Z" fill="white"/>
</svg>
