<svg width="190" height="190" viewBox="0 0 190 190" fill="none" xmlns="http://www.w3.org/2000/svg">
<path d="M83.375 2.36328C91.1326 2.36328 98.8902 2.36328 106.708 2.49731C107.074 2.7836 107.365 3.02356 107.686 3.07349C109.434 3.34529 111.195 3.53731 112.941 3.81689C121.94 5.25751 130.499 8.13335 138.606 12.2203C144.631 15.2583 150.213 19.0216 155.473 23.3192C160.693 27.5828 165.256 32.4392 169.305 37.7345C173.779 43.5872 177.465 49.9699 180.381 56.7795C183.942 65.095 186.573 73.6544 187.665 82.6596C187.697 82.9224 188.122 83.1376 188.363 83.375C188.363 91.1326 188.363 98.8902 188.231 106.708C187.822 108.252 187.535 109.733 187.271 111.218C185.746 119.779 182.741 127.854 179.079 135.688C175.157 144.077 170.139 151.815 163.981 158.707C157.462 166.003 150.093 172.375 141.437 177.106C131.334 182.628 120.646 186.366 109.157 187.665C108.895 187.695 108.679 188.122 108.441 188.363C100.684 188.363 92.9262 188.363 85.108 188.231C84.7433 187.945 84.4529 187.702 84.1328 187.653C81.5688 187.26 78.9553 187.092 76.439 186.504C66.2265 184.118 56.4236 180.614 47.346 175.276C37.6545 169.576 29.0999 162.559 22.0123 153.755C17.0558 147.598 12.8822 141.013 9.71919 133.77C6.32774 126.003 4.02039 117.952 3.06132 109.52C3.03157 109.259 2.6049 109.042 2.36328 108.805C2.36328 100.684 2.36328 92.5629 2.49594 84.3815C2.903 83.1398 3.19594 81.9626 3.44859 80.7768C4.50943 75.7979 5.26272 70.7301 6.68619 65.8577C8.46648 59.764 11.0364 53.9528 14.1977 48.3967C17.471 42.6436 21.1717 37.1846 25.6822 32.3913C29.443 28.3948 33.5906 24.7139 37.8604 21.2555C45.2371 15.2805 53.6559 11.0585 62.5492 7.83989C69.0545 5.48551 75.7408 3.75591 82.6596 3.0607C82.9188 3.03466 83.1375 2.6049 83.375 2.36328ZM104.77 184.738C109.752 183.881 114.806 183.311 119.7 182.099C126.917 180.311 133.8 177.546 140.354 173.457C144.542 170.445 148.874 167.612 152.865 164.359C155.533 162.185 157.716 159.415 160.361 156.846C160.671 156.568 161.024 156.325 161.285 156.006C179.038 134.332 187.7 109.907 183.284 81.7251C180.198 62.0254 171.724 44.9052 157.388 30.9217C153.999 27.6163 149.993 24.9441 146.143 21.7651C140.959 18.9308 135.929 15.7545 130.557 13.3381C121.241 9.14755 111.302 7.06011 101.132 6.43513C93.9613 5.99442 86.7544 6.20207 79.6521 7.51103C76.8375 8.02976 74.0877 8.89978 71.02 9.52897C70.4895 9.62713 69.9444 9.67656 69.4306 9.83043C39.4909 18.7958 19.3405 37.996 9.68897 67.7535C5.44371 80.8425 4.58927 94.4396 6.08597 108.12C6.81654 114.798 8.29505 121.339 10.8183 127.889C15.8594 141.528 23.9287 153.068 34.9224 162.561C36.4592 163.888 38.16 165.025 39.8805 166.471C45.2524 170.644 51.1221 173.979 57.3059 176.776C67.642 181.45 78.4853 184.253 89.7908 184.96C94.6518 185.263 99.5591 184.827 104.77 184.738Z" fill="#BFE0FF"/>
<path d="M10.5 128.79C8.04057 122.505 6.81654 114.798 6.08596 108.12C4.58926 94.4396 5.4437 80.8425 9.68897 67.7535C19.3405 37.996 39.4909 18.7958 69.4305 9.83043C69.9444 9.67656 70.4895 9.62713 71.1826 9.71902C71.6632 12.587 72.3401 15.2807 72.2226 17.9394C71.997 23.0438 69.3749 27.2345 66.159 31.031C64.4408 33.0594 62.4906 34.8903 60.7575 36.9069C58.8123 39.1705 58.9386 41.2025 61.0187 43.3285C61.5215 43.8424 62.1264 44.2564 62.6639 44.8304C62.5902 45.053 62.5416 45.1639 62.4834 45.2695C50.5174 66.9912 38.5569 88.716 26.58 110.432C23.1929 116.573 18.5674 124.397 15 130.5C13.0854 130.096 12.2605 129.171 10.5 128.79ZM18.2229 90.6216C12.9229 90.9848 8.89785 95.7941 9.74427 100.752C10.6066 105.804 14.7503 108.951 19.8795 108.449C24.1644 108.029 27.834 103.805 27.7098 99.4342C27.5678 94.4361 23.7091 90.7227 18.2229 90.6216ZM40.1115 32.7586C39.1409 36.6044 40.5987 40.571 43.7345 42.6169C47.0492 44.7796 51.2395 44.6206 54.2266 42.2189C57.3376 39.7175 58.4883 35.7785 57.174 32.1299C55.8846 28.5505 52.4765 26.1044 48.7339 26.0723C45.0194 26.0404 41.6893 28.5246 40.1115 32.7586ZM31.6429 60.5588C31.3945 60.614 31.1461 60.6692 30.8978 60.7243C31.2026 61.448 31.514 62.1689 31.8111 62.8957C33.1053 66.0615 33.1001 66.0539 30.0337 67.4164C29.174 67.7984 28.3429 68.2445 27.4986 68.6612C27.5822 68.84 27.6658 69.0188 27.7494 69.1977C29.6002 68.4493 31.4511 67.7009 33.418 66.9055C34.3031 68.8193 35.141 70.631 35.9789 72.4428C36.1808 72.3611 36.3828 72.2794 36.5847 72.1978C35.8208 70.3243 35.0569 68.4509 34.2721 66.5262C36.2411 65.6438 38.0449 64.8354 39.8488 64.027C39.7578 63.8245 39.6668 63.6221 39.5758 63.4196C37.7254 64.1664 35.875 64.9132 33.9028 65.7091C33.1483 63.9731 32.4555 62.3792 31.6429 60.5588Z" fill="#BFE0FF"/>
<path d="M146.27 21.9805C149.993 24.9439 153.999 27.6161 157.388 30.9215C171.724 44.9051 180.198 62.0253 183.284 81.725C187.7 109.907 179.038 134.332 161.285 156.006C161.024 156.325 155.547 162.769 155 163C152.269 160.882 154.044 155.188 151.5 153C150.504 151.266 150.413 147.071 149.447 145.359C149.323 145.215 149.22 145.168 149.125 145.118C149.135 145.115 149.148 145.129 149.183 144.991C146.342 137.771 144.779 130.413 145.249 122.774C145.506 118.584 146.391 114.433 146.982 110.262C146.97 110.26 146.962 110.282 147.059 110.223C147.199 109.945 147.241 109.724 147.347 109.392C149.614 105.208 151.817 101.135 154.088 97.1851C156.652 101.16 160.575 102.709 164.575 101.42C168.557 100.136 171.114 96.4491 170.898 92.302C170.646 87.4656 166.999 84.1758 161.419 83.5937C165.434 76.2385 169.412 69.009 173.388 61.7782C174.62 59.537 174.539 59.3317 171.944 58.2402C170.855 57.5938 169.889 56.981 168.893 56.4237C160.968 51.9907 153.037 47.5683 145.101 43.0286C144.977 42.8401 144.86 42.7656 144.756 42.6946C144.77 42.6982 144.762 42.7244 144.773 42.5923C140.318 34.7363 140.736 28.9735 146.27 21.9805ZM151.022 36.3374C150.213 34.6055 149.404 32.8736 148.594 31.1417C148.408 31.2236 148.221 31.3056 148.034 31.3876C148.783 33.2364 149.532 35.0852 150.332 37.0599C148.431 37.9571 146.623 38.8107 144.814 39.6643C144.905 39.8491 144.996 40.0338 145.087 40.2186C146.938 39.4587 148.789 38.6988 150.687 37.92C151.567 39.8755 152.382 41.6835 153.196 43.4915C153.393 43.4053 153.59 43.3192 153.787 43.2331C153.048 41.3481 152.309 39.4631 151.562 37.5563C153.557 36.651 155.344 35.84 157.132 35.029C157.054 34.8635 156.977 34.698 156.9 34.5325C155.014 35.1933 153.129 35.8542 151.022 36.3374ZM168.425 121.389C167.385 121.816 166.344 122.244 165.184 122.72C164.301 120.764 163.489 118.966 162.676 117.167C162.478 117.254 162.28 117.342 162.082 117.43C162.833 119.277 163.583 121.125 164.361 123.039C162.484 123.925 160.68 124.777 158.877 125.628C158.969 125.812 159.061 125.996 159.153 126.18C160.513 125.606 161.91 125.104 163.223 124.438C164.366 123.858 164.957 124.109 165.399 125.288C165.931 126.705 166.6 128.07 167.209 129.458C167.405 129.381 167.602 129.305 167.798 129.228C167.046 127.339 166.293 125.449 165.537 123.55C167.452 122.67 169.235 121.85 171.018 121.031C170.939 120.854 170.859 120.678 170.78 120.501C170.077 120.755 169.373 121.009 168.425 121.389Z" fill="#BFE0FF"/>
<path d="M153 22.384C147.529 29.4848 140.318 34.7368 144.644 42.6484C143.265 42.2883 142.026 41.7404 140.781 41.204C140.775 41.2154 140.798 41.2259 140.816 41.0964C140.671 40.9403 140.509 40.9137 140.261 40.8217C139.908 40.5488 139.641 40.3413 139.355 40.0186C139.208 39.6282 139.081 39.3531 138.985 38.9282C140.211 32.0186 138.689 26.0577 133.379 22.3841C127.171 18.089 118.796 19.4403 114.763 25.5205C114.403 25.585 114.165 25.6456 113.79 25.6767C113.122 25.499 112.593 25.351 112.022 25.0874C102.64 19.7623 93.2957 14.5597 83.9643 9.3339C82.8503 8.71007 82.3557 9.22708 81.8491 10.1564C79.361 14.7208 76.8412 19.268 74.3175 23.8129C70.4463 30.7844 66.5627 37.7491 62.6844 44.7167C62.1265 44.2567 61.5215 43.8428 61.0187 43.3289C58.9386 41.2029 58.8123 39.1709 60.7575 36.9073C62.4906 34.8907 64.4408 33.0598 66.159 31.0314C69.3749 27.2349 71.997 23.0442 72.2226 17.9398C72.3401 15.2811 66.4954 9.26302 66.159 6.43552C68.9199 5.57583 73.6855 5.01879 76.5 4.50007C83.6023 3.1911 91.3289 2.56018 98.5 3.00089C108.67 3.62588 121.684 5.96585 131 10.1564C136.372 12.5728 147.752 19.442 153 22.384Z" fill="#E3FC87"/>
<path d="M152.406 150.539C154.9 152.61 157.393 154.681 160.001 156.831C157.716 159.415 155.533 162.185 152.865 164.359C148.874 167.612 132.878 179.074 128.5 182C123.368 174.901 129.003 160.428 121.555 156.026C129.24 141.944 136.895 127.967 144.579 114.004C145.292 112.707 146.184 111.508 146.994 110.264C146.391 114.433 152.429 117.31 152.171 121.5C151.701 129.139 150.144 137.452 152.865 144.631C152.513 144.591 148.521 144.759 148.316 144.631C144.742 142.405 140.562 142.648 137.544 145.256C134.523 147.865 133.549 152.033 135.12 155.631C136.711 159.278 140.549 161.541 144.312 161.052C148.427 160.517 151.453 157.606 152.171 153.423C152.334 152.477 152.332 151.501 152.406 150.539Z" fill="#BFE0FF"/>
<path d="M104.587 186.5C99.4419 187.352 100.5 184.732 104.587 184.492C105.338 183.953 106.174 183.618 106.521 183.006C109.38 177.963 112.132 172.86 114.95 167.794C117.119 163.894 119.336 158.885 121.532 155C129.003 159.293 137.993 166.877 143 174C136.76 178.152 128.749 181.218 121.532 183.006C116.638 184.218 109.731 185.648 104.587 186.5Z" fill="#E3FC87"/>
<path d="M45.6593 162.22C43.7753 163.525 41.8913 164.83 39.8961 166.193C38.16 165.025 42.5367 172.827 41 171.5C30.0063 162.007 13.073 142.688 8 128.917C9.72854 129.165 14.2754 128.386 16.1486 128.917C15.7202 130.08 15.2713 131.157 14.6164 132.09C13.6088 133.524 14.0616 134.236 15.4937 135.012C22.3443 138.725 29.1435 142.533 35.9578 146.314C38.9569 147.977 41.9484 149.655 44.9186 151.312C43.0097 156.358 43.1457 158.176 45.6593 162.22Z" fill="#E3FC87"/>
<path d="M45.7626 162.275C43.1457 158.175 43.0097 156.358 44.9186 151.312C41.9484 149.655 38.9569 147.977 35.9578 146.313C29.1435 142.533 22.3443 138.725 15.4937 135.012C14.0616 134.235 13.6088 133.524 14.6164 132.089C15.2712 131.157 15.7202 130.08 16.3028 128.941C19.7575 122.687 23.1929 116.573 26.58 110.432C38.5569 88.7162 50.5174 66.9914 62.4834 45.2697C62.5416 45.1641 62.5902 45.0532 62.6639 44.8306C66.5627 37.7488 70.4463 30.7842 74.3175 23.8126C76.8412 19.2677 79.361 14.7206 81.8491 10.1562C82.3557 9.22684 82.8503 8.70982 83.9642 9.33366C93.2957 14.5594 102.64 19.7621 111.87 25.0946C109.662 25.2165 107.565 25.2155 105.399 25.118C100.204 22.1818 95.0408 19.4042 89.9711 16.4654C88.4052 15.5577 87.7739 15.8722 86.9429 17.3832C66.9061 53.8134 46.8274 90.2204 26.7172 126.61C25.9069 128.076 25.9434 128.758 27.552 129.645C51.2573 142.72 74.92 155.871 98.5917 169.007C100.697 170.175 100.698 170.184 101.844 168.104C110.655 152.122 119.464 136.138 128.272 120.154C139.502 99.7778 150.729 79.3999 161.965 59.0265C162.534 57.9953 163.255 57.0811 161.653 56.2136C155.755 53.0201 149.894 49.7574 143.952 46.4247C142.852 44.6166 141.819 42.9045 140.786 41.1923C142.026 41.7402 143.265 42.2881 144.633 42.7803C144.762 42.7247 144.77 42.6984 144.725 42.8121C144.823 42.9982 144.966 43.0706 145.108 43.1429C153.037 47.5686 160.968 51.991 168.893 56.424C169.889 56.9813 170.855 57.5941 171.949 58.3815C171.869 59.1405 171.748 59.7405 171.466 60.2519C149.104 100.85 126.73 141.443 104.336 182.024C104.041 182.557 103.461 182.933 103.014 183.382C97.6671 180.463 92.3085 177.564 86.9755 174.62C78.7349 170.07 70.5126 165.486 62.2789 160.924C61.8138 160.666 61.3154 160.468 60.8415 160.247C60.1479 161.061 59.5285 161.788 58.7253 162.422C58.9538 161.468 59.3662 160.609 59.7218 159.634C55.0598 156.941 50.4544 154.364 45.8713 151.799C43.5021 154.937 43.854 159.115 46.6706 162.031C49.9532 165.171 53.7076 165.456 57.4187 162.984C57.7747 162.747 58.2573 162.7 58.6812 162.564C55.9948 165.9 50.5253 166.253 46.9125 163.315C46.5418 163.014 46.2138 162.66 45.7626 162.275Z" fill="#263A83"/>
<path d="M18.3857 90.6201C23.7091 90.7231 27.5678 94.4365 27.7098 99.4346C27.834 103.805 24.1644 108.03 19.8795 108.449C14.7504 108.951 10.6067 105.805 9.74428 100.753C8.89786 95.7945 12.9229 90.9851 18.3857 90.6201ZM15.8485 107.25C20.1997 108.514 24.1628 106.944 26.016 103.22C27.6523 99.9318 26.6728 95.3324 23.8174 93.1896C21.0656 91.1246 18.1016 90.7206 14.9627 92.2825C11.9316 93.7909 10.4642 96.427 10.514 99.6316C10.5674 103.066 12.24 105.751 15.8485 107.25Z" fill="#263A83"/>
<path d="M40.1373 32.6125C41.6893 28.5248 45.0194 26.0407 48.7339 26.0726C52.4765 26.1047 55.8846 28.5508 57.174 32.1302C58.4883 35.7788 57.3376 39.7177 54.2266 42.2191C51.2395 44.6209 47.0492 44.7798 43.7345 42.6172C40.5987 40.5712 39.1409 36.6046 40.1373 32.6125ZM48.3695 27.0102C43.6123 27.3328 40.0396 31.3872 40.5482 35.886C41.0607 40.42 45.2234 43.9038 49.4678 43.3508C54.0257 42.757 57.0387 39.1571 56.8745 34.5693C56.7585 31.3276 53.846 26.8257 48.3695 27.0102Z" fill="#263A83"/>
<path d="M103.097 183.453C103.461 182.932 104.041 182.557 104.336 182.023C126.731 141.443 149.104 100.85 171.466 60.2515C171.748 59.7401 171.869 59.1401 172.059 58.4404C174.539 59.3317 174.62 59.5369 173.388 61.7781C169.412 69.009 165.434 76.2385 161.34 83.6499C161.091 84.1313 160.959 84.4313 160.746 84.8375C158.61 88.7211 156.555 92.4984 154.405 96.3459C154.213 96.6317 154.117 96.8474 154.021 97.0631C151.817 101.135 149.614 105.207 147.26 109.463C147.06 109.858 147.011 110.07 146.962 110.282C146.962 110.282 146.97 110.26 146.982 110.262C146.184 111.508 145.292 112.707 144.579 114.004C136.895 127.967 129.24 141.944 121.555 156.026C119.336 160.02 117.119 163.893 114.95 167.794C112.132 172.86 109.38 177.963 106.521 183.006C106.174 183.618 105.338 183.953 104.586 184.413C104.023 184.115 103.602 183.819 103.097 183.453Z" fill="#E3FC87"/>
<path d="M152.356 150.421C152.332 151.501 152.334 152.477 152.171 153.424C151.453 157.606 148.427 160.517 144.312 161.052C140.549 161.541 136.711 159.278 135.12 155.632C133.549 152.033 134.523 147.865 137.544 145.256C140.562 142.648 144.742 142.405 148.316 144.632C148.521 144.759 148.711 144.91 149.028 145.09C149.148 145.13 149.135 145.116 149.161 145.196C149.25 145.383 149.343 145.443 149.467 145.455C150.413 147.071 151.36 148.687 152.356 150.421ZM144.447 143.993C143.904 143.974 143.358 143.914 142.817 143.943C137.934 144.209 134.546 148.546 135.308 153.536C135.999 158.062 140.605 161.125 145.139 160.074C148.935 159.194 151.53 155.942 151.515 152.083C151.5 148.078 148.939 145.023 144.447 143.993Z" fill="#263A83"/>
<path d="M154.088 97.1854C154.117 96.8478 154.213 96.6321 154.455 96.4749C154.816 96.8964 155 97.2824 155.251 97.6189C157.63 100.806 161.645 101.893 165.258 100.341C168.695 98.8643 170.609 95.1025 169.882 91.2541C169.08 87.0133 165.903 84.7244 160.827 84.7317C160.959 84.4317 161.091 84.1317 161.302 83.7754C166.999 84.1761 170.646 87.4659 170.898 92.3023C171.114 96.4494 168.557 100.137 164.575 101.42C160.575 102.709 156.652 101.16 154.088 97.1854Z" fill="#263A83"/>
<path d="M147.059 110.224C147.011 110.07 147.06 109.858 147.196 109.575C147.241 109.725 147.199 109.945 147.059 110.224Z" fill="#B5E0E7"/>
<path d="M149.447 145.359C149.343 145.443 149.25 145.383 149.151 145.198C149.22 145.168 149.323 145.215 149.447 145.359Z" fill="#B5E0E7"/>
<path d="M145.101 43.0288C144.966 43.0705 144.823 42.9981 144.712 42.8086C144.86 42.7659 144.977 42.8403 145.101 43.0288Z" fill="#B5E0E7"/>
<path d="M105.468 25.2143C107.565 25.2153 109.662 25.2164 111.912 25.21C112.593 25.3506 113.122 25.4986 113.819 25.7893C114.347 26.2325 114.671 26.5964 115.073 26.8244C122.657 31.1317 130.248 35.4286 137.851 39.7028C138.298 39.9542 138.864 39.9948 139.375 40.1335C139.641 40.3409 139.908 40.5484 140.296 40.9243C140.545 41.137 140.672 41.1812 140.799 41.2255C140.799 41.2255 140.775 41.215 140.781 41.2036C141.819 42.9043 142.852 44.6165 143.944 46.599C144.003 47.9239 144.003 48.9786 144.003 50.3016C130.055 42.5674 116.318 34.9498 102.157 27.0965C103.529 26.3165 104.498 25.7654 105.468 25.2143Z" fill="#263A83"/>
<path d="M114.886 25.5161C118.796 19.4397 127.171 18.0884 133.379 22.3834C138.689 26.0571 140.211 32.0179 138.862 38.8937C130.766 34.5118 122.826 30.0139 114.886 25.5161ZM126.42 26.8189C126.065 29.4693 127.757 31.344 130.032 30.7985C131.499 30.4467 132.329 29.4716 132.416 27.9864C132.508 26.4193 131.76 25.3181 130.24 24.8384C128.501 24.2894 127.346 25.0739 126.42 26.8189Z" fill="#263A83"/>
<path d="M114.763 25.5205C122.826 30.0146 130.766 34.5124 138.83 39.0441C139.081 39.3531 139.208 39.6282 139.355 40.0186C138.864 39.9952 138.298 39.9546 137.851 39.7032C130.248 35.429 122.657 31.132 115.073 26.8248C114.671 26.5968 114.347 26.2329 113.957 25.8192C114.165 25.6456 114.403 25.585 114.763 25.5205Z" fill="#263A83"/>
<path d="M140.816 41.0957C140.672 41.181 140.545 41.1367 140.383 40.9895C140.509 40.9131 140.671 40.9397 140.816 41.0957Z" fill="#432B46"/>
<path d="M105.399 25.1174C104.498 25.7651 103.529 26.3162 102.157 27.0962C116.318 34.9494 130.055 42.567 144.003 50.3012C144.003 48.9782 144.003 47.9236 144.011 46.6946C149.894 49.7569 155.755 53.0196 161.653 56.2131C163.255 57.0806 162.534 57.9948 161.965 59.026C150.729 79.3994 139.502 99.7773 128.272 120.154C119.464 136.138 110.655 152.121 101.844 168.104C100.698 170.184 100.697 170.174 98.5917 169.006C74.92 155.871 51.2573 142.719 27.552 129.645C25.9434 128.757 25.9069 128.076 26.7172 126.61C46.8274 90.2199 66.9061 53.8129 86.9429 17.3827C87.7739 15.8717 88.4052 15.5572 89.9711 16.4649C95.0408 19.4037 100.204 22.1813 105.399 25.1174ZM63.3576 101.423C64.0828 101.177 64.808 100.93 65.5003 100.695C65.9788 101.266 66.3851 101.75 66.7914 102.234C66.8945 102.176 66.9975 102.118 67.1006 102.06C66.7951 101.457 66.4895 100.854 66.1557 100.195C66.5126 99.7462 66.9156 99.2979 67.2528 98.8047C68.7257 96.6503 68.6991 93.6366 67.2454 91.5727C65.7397 89.4351 63.0445 88.3969 60.5548 89.0504C57.3006 89.9045 55.315 92.8782 55.7891 96.1878C56.2729 99.565 59.1549 101.667 63.3576 101.423ZM90.3458 133.586C89.8958 133.757 89.4353 133.906 88.9975 134.105C86.6453 135.172 85.6153 137.147 85.6006 139.587C85.585 142.171 86.8662 144.112 89.262 145.137C91.5707 146.125 93.7702 145.769 95.6927 144.131C97.6108 142.497 98.2549 139.732 97.3392 137.358C96.306 134.679 94.0312 133.38 90.3458 133.586ZM123.224 96.0667C127.261 96.5437 130.194 94.6729 130.895 91.1731C131.534 87.9836 129.554 84.7502 126.324 83.933C123.242 83.1531 120.913 84.4066 119.195 86.9384C118.673 86.8248 118.186 86.719 118.055 86.6907C118.234 87.5752 118.484 88.4154 118.557 89.2705C118.651 90.3852 118.157 91.8794 118.712 92.5563C119.844 93.9345 121.508 94.8747 123.224 96.0667ZM80.9627 65.2594C80.4308 66.5976 81.3523 66.3827 82.0561 66.2152C83.8585 65.7861 85.6443 65.2874 87.5133 64.7964C87.8537 66.0554 88.1291 67.1616 88.4546 68.2527C88.7715 69.315 89.1399 70.362 89.4856 71.4157C89.77 71.3344 90.0544 71.253 90.3388 71.1716C90.0756 69.9064 89.851 68.6317 89.5412 67.378C88.8411 64.5455 88.8892 64.4655 91.6918 63.6984C92.9532 63.3532 94.1896 62.9166 95.4374 62.5215C95.3664 62.233 95.2955 61.9445 95.2246 61.6559C94.1415 61.8666 93.0542 62.0578 91.9765 62.2933C90.8261 62.5448 89.6848 62.8381 88.458 63.1328C87.9448 61.1898 87.5157 59.436 86.9988 57.7084C86.8842 57.3254 86.4595 57.0352 86.1776 56.7022C86.0541 57.1451 85.7548 57.6243 85.8373 58.0248C86.2104 59.8371 86.6913 61.6273 87.1553 63.5143C85.0591 64.0879 83.1476 64.6109 80.9627 65.2594ZM104.259 47.8117C104.523 47.2907 104.788 46.7697 105.095 46.1656C104.356 45.7833 103.749 45.4695 103.084 45.126C102.762 46.3083 102.574 47.3497 102.166 48.2972C102.035 48.603 101.329 48.6621 100.887 48.834C100.854 48.408 100.653 47.8983 100.817 47.5702C101.595 46.0085 102.438 44.4751 103.342 42.983C103.537 42.6612 104.083 42.5519 104.467 42.3447C104.579 42.753 104.691 43.1614 104.803 43.5697C104.948 44.0974 105.093 44.625 105.238 45.1527C106.888 42.9667 106.742 41.8057 105.245 40.9942C103.79 40.2053 102.721 40.6614 101.644 42.5667C100.874 43.9301 100.105 45.2958 99.389 46.688C98.5465 48.326 98.8365 49.4903 100.2 50.2434C101.577 51.0035 102.598 50.6337 103.618 48.9921C103.808 48.6859 103.96 48.356 104.259 47.8117ZM111.75 44.613C110.165 43.6784 108.994 44.1665 108.148 45.6855C107.268 47.2628 106.39 48.8414 105.548 50.4383C104.845 51.7692 105.103 52.8863 106.429 53.6776C107.731 54.4545 108.951 54.1687 109.801 52.7594C110.764 51.163 111.636 49.5096 112.502 47.8574C113.094 46.729 113.071 45.6537 111.75 44.613ZM114.969 50.1099C113.524 51.9529 112.079 53.796 110.546 55.7519C111.052 56.0284 111.442 56.2414 111.824 56.4503C112.277 55.9216 112.661 55.4735 113.089 54.9731C113.608 55.2682 114.066 55.529 114.543 55.8004C114.415 56.7697 113.258 58.0892 115.425 58.2175C116.367 55.5947 117.215 52.9539 118.27 50.3982C118.936 48.783 118.433 48.0902 116.808 47.7691C116.241 48.4899 115.684 49.1975 114.969 50.1099ZM126.076 57.1543C126.108 57.4541 126.119 57.7575 126.174 58.053C126.381 59.1715 126.713 60.2833 126.755 61.4066C126.769 61.7881 126.062 62.1963 125.685 62.5923C125.513 62.1545 125.353 61.7113 125.165 61.2804C124.966 60.8222 124.739 60.3756 124.524 59.9239C124.234 60.0012 123.944 60.0784 123.654 60.1556C123.714 61.1387 123.463 62.323 123.928 63.0444C124.337 63.6768 125.776 64.2828 126.354 64.0174C127.239 63.6117 128.106 62.5361 128.367 61.5777C128.626 60.6294 128.094 59.4774 127.969 58.4076C127.895 57.7733 127.84 57.1043 127.973 56.4932C128.03 56.2292 128.581 56.072 128.907 55.8663C129.083 56.2029 129.281 56.5303 129.431 56.8781C129.646 57.378 129.828 57.8928 130.024 58.4012C130.296 58.3346 130.569 58.2681 130.841 58.2015C130.782 57.2523 131.009 56.1318 130.576 55.4064C130.21 54.795 129.068 54.3309 128.286 54.3544C126.861 54.3972 126.374 55.6228 126.076 57.1543ZM118.101 60.0273C119.044 60.5331 119.987 61.0389 121.038 61.6025C121.239 61.0816 121.397 60.6744 121.543 60.2972C120.77 59.7989 120.13 59.3859 119.458 58.9525C120.69 56.7103 121.805 54.5764 123.024 52.503C123.7 51.3528 123.309 50.9337 122.125 50.7178C120.669 53.3593 119.226 55.9255 117.855 58.5301C117.672 58.8774 117.858 59.4189 118.101 60.0273Z" fill="white"/>
<path d="M46.4221 162.189C43.669 159.378 41.4459 153.902 43.815 150.764C48.3982 153.329 57.315 158.264 61.815 160.764C57.3119 160.935 50.5383 160.503 46.4221 162.189Z" fill="#E3FC87"/>
<path d="M46.6705 162.031C50.7233 160.239 55.0518 159.798 59.6116 159.742C59.3662 160.609 58.9538 161.468 58.6034 162.454C58.6652 162.58 58.6701 162.569 58.6757 162.567C58.2573 162.699 57.7747 162.747 57.4186 162.984C53.7076 165.455 49.9532 165.17 46.6705 162.031Z" fill="#E3FC87"/>
<path d="M15.7182 107.189C12.24 105.75 10.5674 103.066 10.514 99.6309C10.4642 96.4263 11.9316 93.7902 14.9627 92.2818C18.1016 90.7199 21.0656 91.1239 23.8174 93.1889C26.6728 95.3317 27.6523 99.9311 26.016 103.219C24.1628 106.943 20.1997 108.514 15.7182 107.189Z" fill="#263A83"/>
<path d="M48.5324 27.0084C53.846 26.8251 56.7585 31.327 56.8745 34.5687C57.0387 39.1565 54.0257 42.7564 49.4678 43.3502C45.2234 43.9031 41.0607 40.4194 40.5482 35.8854C40.0396 31.3865 43.6123 27.3322 48.5324 27.0084Z" fill="#263A83"/>
<path d="M160.746 84.838C165.903 84.7245 169.08 87.0134 169.882 91.2542C170.609 95.1026 168.695 98.8644 165.258 100.341C161.645 101.893 157.63 100.806 155.251 97.6189C155 97.2825 154.816 96.8965 154.551 96.4048C156.555 92.4989 158.609 88.7216 160.746 84.838Z" fill="#263A83"/>
<path d="M126.478 26.6904C127.346 25.0737 128.501 24.2893 130.24 24.8382C131.76 25.3179 132.508 26.4192 132.416 27.9862C132.329 29.4714 131.499 30.4466 130.032 30.7983C127.757 31.3438 126.065 29.4692 126.478 26.6904Z" fill="#B3DEE9"/>
<path d="M104.194 47.9248C103.96 48.3565 103.808 48.6864 103.618 48.9926C102.598 50.6341 101.577 51.004 100.2 50.2439C98.8365 49.4908 98.5465 48.3265 99.389 46.6885C100.105 45.2963 100.874 43.9306 101.644 42.5671C102.721 40.6618 103.79 40.2057 105.245 40.9946C106.742 41.8062 106.888 42.9671 105.238 45.1531C105.093 44.6255 104.948 44.0978 104.803 43.5702C104.691 43.1618 104.579 42.7535 104.467 42.3451C104.083 42.5523 103.537 42.6616 103.342 42.9835C102.438 44.4755 101.595 46.0089 100.817 47.5706C100.653 47.8988 100.854 48.4085 100.887 48.8345C101.329 48.6626 102.035 48.6035 102.166 48.2977C102.574 47.3501 102.762 46.3087 103.084 45.1265C103.749 45.47 104.356 45.7838 105.095 46.1661C104.788 46.7702 104.523 47.2912 104.194 47.9248Z" fill="#263A83"/>
<path d="M111.864 44.701C113.071 45.6545 113.094 46.7298 112.502 47.8582C111.636 49.5103 110.764 51.1638 109.801 52.7601C108.951 54.1694 107.731 54.4553 106.429 53.6784C105.103 52.8871 104.845 51.7699 105.548 50.439C106.39 48.8421 107.268 47.2636 108.148 45.6862C108.994 44.1672 110.165 43.6792 111.864 44.701ZM110.224 45.7631C109.166 47.5056 108.067 49.2257 107.084 51.0098C106.895 51.3528 107.162 51.9466 107.218 52.4247C107.652 52.215 108.273 52.1211 108.487 51.7754C109.407 50.2894 110.271 48.7589 111 47.173C111.156 46.8323 110.665 46.1938 110.224 45.7631Z" fill="#263A83"/>
<path d="M115.048 50.0079C115.684 49.1979 116.241 48.4903 116.808 47.7695C118.433 48.0906 118.936 48.7834 118.27 50.3986C117.215 52.9543 116.367 55.5951 115.425 58.2179C113.258 58.0896 114.415 56.7701 114.543 55.8008C114.066 55.5294 113.608 55.2686 113.089 54.9735C112.661 55.4739 112.277 55.922 111.824 56.4507C111.442 56.2418 111.052 56.0288 110.546 55.7523C112.079 53.7964 113.524 51.9533 115.048 50.0079ZM114.662 52.693C114.437 53.0455 114.211 53.3979 113.95 53.8068C114.364 54.0064 114.725 54.1808 115.183 54.4018C115.654 53.1451 116.086 51.9931 116.518 50.8411C116.416 50.7862 116.313 50.7314 116.21 50.6766C115.749 51.2832 115.287 51.8898 114.662 52.693Z" fill="#263A83"/>
<path d="M126.097 57.0151C126.374 55.6227 126.861 54.3972 128.286 54.3544C129.068 54.3309 130.21 54.7949 130.576 55.4064C131.009 56.1318 130.782 57.2522 130.841 58.2015C130.569 58.268 130.296 58.3346 130.024 58.4012C129.828 57.8927 129.646 57.378 129.431 56.8781C129.281 56.5303 129.083 56.2028 128.907 55.8663C128.581 56.072 128.03 56.2292 127.973 56.4932C127.84 57.1043 127.895 57.7733 127.969 58.4076C128.094 59.4773 128.626 60.6293 128.367 61.5777C128.106 62.5361 127.239 63.6116 126.354 64.0174C125.776 64.2828 124.337 63.6768 123.928 63.0444C123.463 62.323 123.714 61.1387 123.654 60.1556C123.944 60.0783 124.234 60.0011 124.524 59.9239C124.739 60.3756 124.966 60.8222 125.165 61.2804C125.353 61.7113 125.513 62.1545 125.685 62.5922C126.062 62.1962 126.769 61.788 126.755 61.4065C126.713 60.2832 126.381 59.1714 126.174 58.0529C126.119 57.7575 126.108 57.454 126.097 57.0151Z" fill="#263A83"/>
<path d="M117.987 59.9489C117.858 59.4189 117.672 58.8774 117.855 58.5301C119.226 55.9255 120.669 53.3593 122.125 50.7178C123.309 50.9337 123.7 51.3528 123.024 52.503C121.805 54.5764 120.69 56.7103 119.458 58.9524C120.13 59.3859 120.77 59.7989 121.543 60.2972C121.397 60.6744 121.239 61.0816 121.037 61.6025C119.987 61.0389 119.044 60.5331 117.987 59.9489Z" fill="#263A83"/>
<path d="M128.682 92.9986C127.013 94.8428 125.107 95.4708 122.885 94.5734C120.905 93.7738 119.832 92.183 119.788 90.0807C119.745 88.0662 120.67 86.4781 122.523 85.5386C124.479 84.5465 126.828 84.9672 128.334 86.5542C129.944 88.2503 130.094 90.4777 128.682 92.9986Z" fill="#263A83"/>
<path d="M110.348 45.7275C110.665 46.1935 111.156 46.832 111 47.1727C110.271 48.7586 109.407 50.2891 108.487 51.7751C108.273 52.1208 107.652 52.2147 107.218 52.4245C107.162 51.9464 106.895 51.3525 107.084 51.0096C108.067 49.2255 109.166 47.5053 110.348 45.7275Z" fill="white"/>
<path d="M114.744 52.5949C115.287 51.89 115.749 51.2834 116.21 50.6768C116.313 50.7316 116.416 50.7864 116.518 50.8412C116.086 51.9933 115.654 53.1453 115.183 54.4019C114.725 54.1809 114.364 54.0066 113.95 53.807C114.211 53.3981 114.437 53.0456 114.744 52.5949Z" fill="white"/>
<path d="M105 187C100.114 187.1 94.361 188.304 89.5 188C78.1945 187.293 69.8361 185.174 59.5 180.5C53.3162 177.703 42.3086 171.341 37 167C38.9474 165.527 32.0126 150.75 34 149.5C34.4511 149.885 46.0875 150.185 45.5 153.5C49.1127 156.437 51.3191 163.58 54 160.247C53.9945 160.249 59.8781 160.279 60 160.247C60.7413 159.487 60.1479 161.061 60.8415 160.247C61.3154 160.468 61.8138 160.666 62.2789 160.923C70.5126 165.486 78.7349 170.069 86.9755 174.619C92.3086 177.564 97.6671 180.463 103.097 183.453C103.602 183.82 108.579 181.125 109 181.5C110.056 182.438 105 187 105 187Z" fill="#E3FC87"/>
<path d="M87.4999 138C87.4999 138 53.2404 121.478 62.397 111.521C71.5537 101.563 64.9387 99.8295 64.9387 99.8295" stroke="#BFC8FF"/>
<path d="M63 97.2021C95.9999 125.702 108.385 93.4714 123.398 97.2021" stroke="#BFC8FF"/>
<path d="M125.5 83.9998C88.2237 87.0526 104.623 67.5837 87.7763 63.9998" stroke="#BFC8FF"/>
<path d="M63.2052 101.454C59.1549 101.667 56.2729 99.5649 55.7891 96.1877C55.315 92.8781 57.3006 89.9043 60.5548 89.0502C63.0445 88.3968 65.7397 89.4349 67.2454 91.5726C68.6991 93.6365 68.7257 96.6502 67.2528 98.8046C66.9156 99.2978 66.5126 99.7461 66.1557 100.195C66.4895 100.854 65.1948 100.396 65.5003 101C61.6049 97.744 64.2089 97.265 65.5 99.9995C65.0937 99.5152 65.9788 101.265 65.5003 100.695C64.808 100.93 64.0828 101.176 63.2052 101.454Z" fill="#263A83"/>
<path d="M123.089 96.0311C121.508 94.8748 119.844 93.9346 118.712 92.5564C118.157 91.8795 118.651 90.3853 118.557 89.2706C118.484 88.4155 118.234 87.5753 118.055 86.6908C118.186 86.7191 118.673 86.8249 119.195 86.9385C120.913 84.4067 123.242 83.1532 126.324 83.9331C129.554 84.7503 131.534 87.9837 130.895 91.1732C130.194 94.673 127.261 96.5438 123.089 96.0311ZM128.762 92.8839C130.094 90.477 129.944 88.2495 128.334 86.5535C126.828 84.9665 124.479 84.5457 122.523 85.5379C120.67 86.4774 119.745 88.0654 119.788 90.08C119.832 92.1822 120.905 93.7731 122.885 94.5727C125.107 95.4701 127.013 94.8421 128.762 92.8839Z" fill="#263A83"/>
<path d="M81.0995 65.1966C83.1477 64.6108 85.0591 64.0878 87.1553 63.5142C86.6913 61.6272 86.2104 59.8371 85.8373 58.0247C85.7548 57.6242 86.0541 57.1451 86.1776 56.7021C86.4595 57.0351 86.8842 57.3253 86.9988 57.7083C87.5157 59.4359 87.9448 61.1898 88.458 63.1327C89.6848 62.8381 90.8261 62.5447 91.9766 62.2933C93.0542 62.0577 94.1415 61.8666 95.2246 61.6559C95.2955 61.9444 95.3664 62.2329 95.4374 62.5215C94.1896 62.9166 92.9532 63.3531 91.6918 63.6984C88.8892 64.4654 88.8411 64.5454 89.5412 67.3779C89.8511 68.6316 90.0756 69.9064 90.3388 71.1716C90.0544 71.2529 89.77 71.3343 89.4857 71.4157C89.1399 70.3619 88.7715 69.3149 88.4546 68.2526C88.1291 67.1615 87.8537 66.0554 87.5133 64.7964C85.6444 65.2873 83.8585 65.7861 82.0561 66.2151C81.3524 66.3826 80.4308 66.5976 81.0995 65.1966Z" fill="#263A83"/>
<path d="M90.4975 133.561C94.0312 133.38 96.3061 134.679 97.3392 137.358C98.2549 139.732 97.6108 142.497 95.6927 144.131C93.7703 145.769 91.5707 146.125 89.262 145.137C86.8662 144.112 85.585 142.171 85.6006 139.587C85.6153 137.147 86.6453 135.172 88.9975 134.105C89.4354 133.906 89.8958 133.757 90.4975 133.561Z" fill="#263A83"/>
<circle cx="62" cy="95" r="7" fill="#263A83"/>
<circle cx="92" cy="140" r="7" fill="#263A83"/>
<circle cx="124" cy="90" r="7" fill="#263A83"/>
<path d="M145.529 142.092C150.841 143.33 153.981 147.068 154 151.969C154.018 156.69 150.837 160.669 146.183 161.746C140.625 163.033 134.978 159.285 134.131 153.747C133.197 147.641 137.351 142.335 143.337 142.01C144 141.974 144.669 142.047 145.529 142.092Z" fill="#263A83"/>
<circle cx="95" cy="95" r="93" stroke="#E3FC87" stroke-width="3"/>
</svg>
