<svg width="63" height="63" viewBox="0 0 63 63" fill="none" xmlns="http://www.w3.org/2000/svg">
<path d="M55.1147 15.7471V29.1951C52.7034 28.1416 50.0406 27.5574 47.2411 27.5574C36.3702 27.5574 27.5573 36.3702 27.5573 47.2412C27.5573 50.0406 28.1416 52.7034 29.195 55.1147H9.84191C4.40638 55.1147 0 50.7083 0 45.2728V15.7471H55.1147Z" fill="white"/>
<path d="M45.2728 0C50.7083 0 55.1147 4.40638 55.1147 9.8419V11.8103H0V9.8419C0 4.40638 4.40638 0 9.84191 0H45.2728Z" fill="white"/>
<path d="M47.2471 35.4308C40.7211 35.4308 35.4309 40.7211 35.4309 47.247C35.4309 53.773 40.7211 59.0632 47.2471 59.0632C49.0576 59.0632 50.7512 58.6499 52.2987 57.9117C53.2798 57.4436 54.4549 57.8594 54.923 58.8408C55.3911 59.8218 54.975 60.9966 53.9939 61.4646C51.9436 62.4429 49.6729 63 47.2471 63C38.5468 63 31.4941 55.9473 31.4941 47.247C31.4941 38.5468 38.5468 31.4941 47.2471 31.4941C55.9422 31.4941 62.9918 38.5385 63 47.2313V47.2411V49.2016C63 52.466 60.3537 55.1127 57.089 55.1127C55.2832 55.1127 53.6664 54.3029 52.5822 53.0262C51.1783 54.3226 49.3025 55.1146 47.2412 55.1146C42.8926 55.1146 39.3677 51.5897 39.3677 47.2411C39.3677 42.8926 42.8926 39.3676 47.2412 39.3676C48.9572 39.3676 50.5453 39.9168 51.8389 40.8486C52.1865 40.5396 52.6444 40.3518 53.1463 40.3518C54.2333 40.3518 55.1147 41.2332 55.1147 42.3202V49.2016C55.1147 50.2921 55.9985 51.1759 57.089 51.1759C58.1795 51.1759 59.0633 50.2921 59.0633 49.2016V47.247C59.0633 40.7211 53.7731 35.4308 47.2471 35.4308ZM43.3044 47.2411C43.3044 49.4154 45.0669 51.1779 47.2412 51.1779C49.4155 51.1779 51.1779 49.4154 51.1779 47.2411C51.1779 45.0669 49.4155 43.3044 47.2412 43.3044C45.0669 43.3044 43.3044 45.0669 43.3044 47.2411Z" fill="white"/>
</svg>
