<svg width="190" height="190" viewBox="0 0 190 190" fill="none" xmlns="http://www.w3.org/2000/svg">
<path d="M170.099 39C170.537 39.4275 171.059 39.7968 171.4 40.291C177.745 49.4922 182.441 59.4532 185 70.4576C181.978 69.6525 179.063 69.7123 176.156 70.115C177.855 66.3618 177.362 62.9456 174.858 59.9639C172.554 57.2208 169.471 56.1117 165.908 56.9133C161.405 57.9268 158.191 62.0606 158.488 66.2829C158.838 71.2754 162.204 74.6531 167.381 75.3793C166.444 76.9878 165.571 78.4901 164.702 79.9994C164.707 80.0065 164.72 80.0174 164.627 80.0492C164.476 80.1965 164.419 80.312 164.257 80.5019C155.237 85.592 146.32 90.6078 137.404 95.6237C137.448 95.7283 137.491 95.8328 137.534 95.9374C145.594 94.9274 153.654 93.9174 161.73 93.082C161.578 100.424 162.425 107.649 160.38 114.733C153.141 113.961 146.061 113.175 138.981 112.389C138.939 112.56 138.898 112.731 138.857 112.902C144.606 115.918 150.354 118.934 156.114 122.088C155.752 122.783 155.498 123.508 154.987 123.871C152.339 125.752 149.632 127.55 146.933 129.36C144.199 131.194 141.45 133.007 138.574 134.819C137.924 134.38 137.366 133.991 136.896 133.515C134.535 131.128 132.196 128.718 129.806 126.23C129.646 126.081 129.531 126.019 129.415 125.956C129.479 126.144 129.542 126.332 129.617 126.661C129.818 127.33 130.005 127.859 130.196 128.386C131.602 132.252 133.008 136.117 134.318 140.085C131.622 144.366 129.699 148.865 128.962 153.704C128.348 157.731 128.359 161.854 127.946 165.895C126.322 165.952 124.846 166.048 123.347 165.971C122.917 161.904 122.508 158.01 122.13 154.403C118.885 154.403 115.952 154.403 113.018 154.247C113.058 151.728 112.876 149.335 113.181 147.006C114.299 138.488 116.402 130.064 115.562 121.409C116.997 121.711 118.274 122.071 119.575 122.205C125.127 122.78 128.646 118.351 126.538 113.434C125.95 112.062 125.124 110.793 124.4 109.482C124.392 109.488 124.379 109.501 124.537 109.467C125.933 109.574 127.182 109.9 128.405 109.821C131.7 109.608 133.067 106.731 131.162 104.062C130.406 103.003 129.501 102.003 128.498 101.178C126.424 99.4735 124.238 97.9041 122.158 96.1628C122.684 95.305 123.153 94.5648 123.617 93.8215C127.092 88.2554 131.034 82.9733 133.424 76.7635C134.928 72.8579 136.741 69.0714 138.551 65.2424C142.194 64.8183 143.152 61.405 145.587 59.1725C145.025 61.5194 144.436 63.4957 144.12 65.5148C143.981 66.4046 144.4 67.3815 144.565 68.3188C145.39 67.8764 146.243 67.4781 147.026 66.9714C147.374 66.7461 147.577 66.299 147.852 65.9578C152.338 60.4009 156.791 54.8168 161.324 49.2989C164.187 45.8146 167.17 42.4296 170.099 39Z" fill="#263A83"/>
<path d="M33 25.1139C34.6238 23.6231 36.1577 22.0198 37.8866 20.6605C46.5637 13.8387 56.1978 8.74325 66.7294 5.3691C73.1856 3.30066 79.7895 1.94808 86.5808 1.36896C98.3668 0.363915 109.918 1.39368 121.267 4.68556C121.8 4.84024 122.306 5.08811 122.904 5.57241C122.986 6.03774 122.982 6.22343 122.989 6.4087C123.212 12.2292 120.001 16.6272 113.917 16.7786C110.609 16.8609 109.361 18.5463 109.437 21.9141C109.51 25.1783 109.702 28.4399 109.82 31.8213C108.953 33.2172 108.005 34.4409 107.289 35.7862C106.527 37.2197 105.984 38.7682 105.212 40.3018C104.613 40.6382 104.102 40.889 103.687 41.248C99.515 44.8542 94.6778 45.6028 89.4089 44.5806C85.4796 43.8184 82.1513 41.8206 79.0007 39.5123C82.4096 36.0902 83.3011 32.3691 81.6173 28.6614C78.6366 22.098 69.6948 21.222 65.3203 27.2201C62.4047 25.4037 59.5096 25.1839 56.5066 26.5488C55.1527 27.1641 53.8429 27.9165 52.4346 28.3637C49.9719 29.1457 47.4835 30.0891 44.9433 30.3383C40.0905 30.8143 36.1563 28.7152 33 25.1139Z" fill="#BFE0FF"/>
<path d="M106 40.3007C106.637 38.7997 107.178 37.2484 107.939 35.8124C108.653 34.4646 109.599 33.2387 110.568 31.7502C115.892 24.4282 121.095 17.3186 126.284 10.1985C127.043 9.15796 127.732 8.06741 128.453 7C136.74 10.1564 144.427 14.392 151.503 19.7203C158.131 24.7107 163.904 30.5575 168.961 37.111C169.369 37.6401 169.648 38.2684 170 38.9596C167.109 42.4528 164.151 45.7931 161.314 49.2314C156.82 54.6764 152.405 60.1868 147.958 65.6702C147.685 66.0069 147.484 66.4481 147.139 66.6705C146.363 67.1705 145.517 67.5635 144.699 68C144.535 67.0751 144.121 66.1111 144.258 65.2331C144.571 63.2406 145.155 61.2905 145.713 58.9745C143.299 61.1775 142.349 64.5457 138.663 64.8593C138.19 63.6471 137.639 62.5267 137.729 61.4599C137.875 59.7256 138.442 58.0264 138.916 55.9381C138.281 56.6909 137.889 57.1547 137.498 57.6196C135.549 59.9391 133.559 60.7997 131.933 60.0259C130.36 59.2773 129.593 56.9572 130.085 54.2203C130.341 52.796 130.706 51.391 131.068 49.7687C129.673 51.0722 128.57 52.3495 127.232 53.2972C124.887 54.9582 122.548 54.134 121.65 51.4128C121.346 50.4926 121.203 49.4613 121.255 48.4952C121.377 46.253 121.663 44.0196 121.899 41.6067C121.331 42.1435 120.884 42.658 120.35 43.0556C118.216 44.6426 116.193 46.4474 113.87 47.6933C110.923 49.274 109.262 47.9351 109.588 44.4351C110.717 41.845 111.796 39.3743 112.95 36.8386C113.057 36.6502 113.089 36.5269 113.203 36.3982C113.282 36.3078 113.278 36.2229 113.275 36.1379C113.219 36.2217 113.163 36.3054 113.014 36.4071C112.841 36.5186 112.761 36.6121 112.567 36.7588C111.316 37.6637 110.245 38.6326 109.019 39.3279C108.119 39.8381 107.014 39.9894 106 40.3007ZM145.754 58.5468L145.853 58.6053C145.853 58.6053 145.836 58.4657 145.754 58.5468Z" fill="#E3FC87"/>
<path d="M59.6558 179C56.5011 177.562 53.2316 176.334 50.2134 174.645C41.8528 169.968 34.3386 164.12 27.8222 157.032C19.4879 147.967 13.0917 137.663 8.74736 126.06C6.05541 118.871 4.33848 111.448 3.39646 103.839C3.04419 100.994 2.95323 98.1162 3.0206 95.1434C4.28834 95.0273 5.2822 94.9621 6.26832 95.0237C16.016 95.6327 24.6068 101.444 24.9059 113.539C20.0902 113.663 16.7511 116.127 15.5471 120.334C14.45 124.168 15.9587 128.313 19.2764 130.58C23.1604 133.233 27.5979 132.527 31.8131 128.667C36.2092 130.358 40.4048 132.264 44.7772 133.56C54.8671 136.548 61.9856 142.742 65.9749 152.597C66.5706 154.069 67.149 155.548 67.7033 157.178C67.7698 158.001 67.8684 158.669 67.9556 159.332C67.9441 159.327 67.9516 159.303 67.9465 159.481C68.067 163.78 68.1435 167.894 66.3116 171.831C65.6648 171.995 65.1599 172.116 64.6177 172.245C64.6626 173.124 64.7024 173.902 64.6551 174.792C62.9305 176.269 61.2932 177.634 59.6558 179Z" fill="#BFE0FF"/>
<path d="M68.3984 156.998C67.8049 155.528 67.2195 154.055 66.6166 152.589C62.5792 142.77 55.3748 136.599 45.1631 133.621C40.7379 132.331 36.4917 130.431 32.0902 128.629C36.0177 121.823 32.842 114.907 25.2251 113.659C24.7492 101.624 16.0547 95.8344 6.18943 95.2276C5.19141 95.1662 4.18556 95.2312 3.00513 95.2505C2.97033 91.24 3.11375 87.2165 3.40228 83C5.15526 83.3006 6.77224 83.7668 8.36947 84.2925C16.7373 87.0469 25.1001 89.8163 33.5692 92.643C33.9785 92.7911 34.2832 92.8767 34.7123 93.0278C37.5106 93.9805 40.1852 94.8662 42.8586 95.7551C46.2865 96.8949 46.2861 96.8961 48.2038 94.1215C55.9741 97.937 63.617 101.691 71.271 105.554C71.2862 105.808 71.2903 105.954 71.2206 106.245C71.2494 109.477 71.1568 112.585 71.5005 115.644C72.006 120.145 72.8228 124.61 73.3572 129.104C67.9552 129.948 64.361 134.869 65.3782 139.836C66.4776 145.205 71.3606 148.456 76.6183 147.403C77.1809 150.437 77.6749 153.34 78 156.277C74.6916 156.537 71.5521 156.764 68.4099 156.997C68.4072 157.003 68.3984 156.998 68.3984 156.998Z" fill="#263A83"/>
<path d="M33.0591 92C24.6964 89.2744 16.3355 86.5436 7.96955 83.8277C6.37267 83.3093 4.75605 82.8495 3 82.3884C3.84708 75.457 5.35789 68.6139 7.79438 62.0008C11.4977 51.9494 16.7484 42.7497 23.75 34.5428C24.2187 33.9933 24.7702 33.5119 25.5476 33C31.0857 36.2359 36.3727 39.4499 41.6284 42.7127C45.1239 44.8827 48.5746 47.1224 52 49.4615C45.6561 63.7281 39.3576 77.8641 33.0591 92Z" fill="#E3FC87"/>
<path d="M52.4013 49.3744C48.9255 47.1125 45.4698 44.8186 41.9693 42.5961C36.706 39.2544 31.4114 35.9626 26 32.6328C26.6928 31.5521 27.4426 30.4194 28.3555 29.4403C29.7652 27.9281 31.2864 26.521 32.8706 25C36.1683 28.6165 40.1413 30.7649 45.0421 30.2777C47.6073 30.0227 50.1203 29.0572 52.6073 28.2568C54.0295 27.7991 55.3522 27.029 56.7196 26.3992C59.7522 25.0023 62.6759 25.2272 65.5527 27.196C64.2854 29.7526 63.9148 32.2168 64.6019 34.8667C65.8816 39.8016 72.4277 44.4463 79.3555 39.7702C82.6175 42.0298 85.9788 44.0744 89.9468 44.8546C95.2678 45.9008 100.153 45.1346 104.366 41.4437C104.786 41.0763 105.301 40.8196 105.907 40.4753C107.067 40.1211 108.186 39.9665 109.097 39.4453C110.338 38.7349 111.421 37.745 112.737 36.8715C112.901 36.868 113 36.9685 113 36.9685C111.908 39.4927 110.815 42.0169 109.536 44.6996C108.416 45.8819 107.462 46.8857 106.557 47.9329C100.206 55.2816 93.8648 62.6393 87.3495 70C78.2518 69.5841 69.9393 67.0377 62.1571 62.5597C62.8268 60.9155 63.5481 59.4334 64.1001 57.8901C64.2531 57.4625 64.0789 56.5751 63.7572 56.3699C60.362 54.2041 56.9064 52.1338 53.4067 49.9457C53.031 49.6944 52.7162 49.5344 52.4013 49.3744Z" fill="#263A83"/>
<path d="M65.1253 175.014C65.0853 174.211 65.0452 173.407 65 172.501C65.5455 172.367 66.0535 172.243 66.8682 172.091C68.3495 171.918 69.524 171.772 70.8599 171.648C71.7686 171.626 72.5186 171.609 73.2629 171.533C85.6777 170.268 98.093 169.008 110.505 167.717C114.779 167.272 119.045 166.746 123.314 166.258C124.785 166.158 126.256 166.059 127.873 166C128.02 166.041 128.019 166.081 128.022 166.255C128.166 167.007 128.306 167.586 128.446 168.165C128.446 168.165 128.461 168.141 128.414 168.311C128.912 172.289 129.456 176.096 130 179.904C123.035 183.057 115.735 184.97 108.238 186.06C93.9506 188.138 79.9424 186.783 66.1324 181.87C65.7318 179.413 65.4286 177.213 65.1253 175.014Z" fill="#BFE0FF"/>
<path d="M128 7.31729C127.423 8.41538 126.743 9.50689 125.994 10.5483C120.873 17.6747 115.737 24.7906 110.504 32C110.264 28.8187 110.075 25.5484 110.003 22.2755C109.929 18.8987 111.158 17.2088 114.415 17.1262C120.406 16.9744 123.569 12.5646 123.349 6.72855C123.342 6.54279 123.346 6.3566 123.342 6C124.848 6.31544 126.357 6.80149 128 7.31729Z" fill="#BFE0FF"/>
<path d="M130.506 179C129.915 175.404 129.443 171.784 129 168C129.623 169.392 130.073 171.049 130.851 172.476C131.721 174.072 132.889 175.458 134 177.04C132.924 177.755 131.774 178.366 130.506 179Z" fill="#7074FA"/>
<path d="M65.0032 175C65.3984 176.878 65.7049 178.86 66 181C64.0193 180.479 62.0502 179.8 60 179.018C61.5841 177.644 63.2493 176.374 65.0032 175Z" fill="#7175F9"/>
<path d="M73.2582 129.004C72.5732 124.549 71.7553 120.109 71.2491 115.634C70.905 112.593 70.9977 109.503 71.0605 106.39C71.7982 108.542 73.1492 109.924 75.4 110.094C76.6116 116.04 77.7781 121.765 78.9446 127.491C79.2543 127.432 79.564 127.374 79.8738 127.316C78.4129 117.234 75.7108 107.35 74.3038 97.0309C76.9375 99.6082 77.0019 99.6168 79.6158 97.8885C81.6604 107.172 83.7027 116.445 85.745 125.717C86.0806 125.648 86.4163 125.579 86.752 125.51C85.0151 116.131 82.6433 106.864 80.7489 97.138C82.6021 98.252 84.2219 98.2765 85.1502 96.8325C85.9196 95.6356 86.0637 94.0453 86.6042 92.2281C87.1655 93.4667 87.7733 94.4175 88.0383 95.454C90.3507 104.501 92.5944 113.565 94.8877 122.617C95.0387 123.213 95.4296 123.75 95.7089 124.314C95.9446 124.222 96.1803 124.129 96.416 124.037C95.2159 119.062 94.0447 114.08 92.8076 109.115C91.5658 104.13 90.2582 99.1611 89.0618 94.5057C90.6441 95.1521 92.1891 96.3202 93.6871 96.264C95.7107 96.1881 95.8841 94.0377 96.1739 92C96.5711 93.1349 96.8743 93.8825 97.0962 94.653C99.8878 104.348 102.662 114.047 105.466 123.738C105.634 124.32 106.023 124.839 106.31 125.387C106.479 125.31 106.649 125.234 106.818 125.157C106.738 124.258 106.466 123.328 106.61 122.465C107.456 117.374 108.3 112.279 109.351 107.228C109.85 104.829 111.748 103.591 113.726 103.705C113.149 105.72 112.118 107.768 112.087 109.831C112.051 112.221 113.91 113.799 115.97 114.899C115.783 116.765 115.721 118.527 115.666 120.429C115.696 120.842 115.719 121.116 115.743 121.391C116.733 130.027 114.623 138.388 113.501 146.843C113.195 149.154 113.378 151.529 113.19 154.065C112.047 154.341 111.051 154.456 110.053 154.508C105.67 154.735 101.286 154.955 96.9023 155.156C90.5773 155.447 84.2515 155.72 77.9261 156C77.4314 153.114 76.9368 150.227 76.3849 147.081C76.3073 146.648 76.2869 146.475 76.2754 146.149C76.0403 144.592 75.8072 143.187 75.55 141.786C74.8141 137.777 74.0684 133.771 73.3292 129.636C73.3073 129.34 73.2828 129.172 73.2582 129.004Z" fill="#BD706E"/>
<path d="M87 70.2293C93.3642 62.8723 99.7251 55.5124 106.096 48.1614C107.004 47.1139 107.962 46.1098 109.034 45.0491C108.892 48.4675 110.578 49.8358 113.57 48.2203C115.929 46.947 117.983 45.1026 120.149 43.4808C120.692 43.0744 121.146 42.5486 121.722 42C121.482 44.466 121.192 46.7484 121.069 49.0398C121.015 50.0271 121.161 51.0812 121.47 52.0216C122.382 54.8025 124.756 55.6448 127.137 53.9473C128.496 52.9788 129.615 51.6734 131.032 50.3413C130.664 51.9993 130.294 53.4351 130.034 54.8907C129.535 57.6877 130.313 60.0588 131.91 60.8239C133.562 61.6146 135.582 60.7351 137.561 58.3646C137.958 57.8895 138.356 57.4155 139 56.6462C138.519 58.7804 137.944 60.5169 137.795 62.2893C137.704 63.3795 138.263 64.5246 138.606 65.7523C136.997 69.732 135.172 73.5506 133.659 77.4893C131.252 83.7517 127.285 89.0785 123.787 94.6917C123.32 95.4413 122.848 96.1877 122.202 97C120.323 95.9897 118.587 94.9634 116.939 93.81C116.462 93.4761 115.822 92.5834 115.965 92.2768C117.277 89.4492 118.734 86.688 120.174 83.9209C120.748 82.8187 121.476 81.7861 121.932 80.6412C122.048 80.3517 121.389 79.7524 120.938 79.3071C118.785 78.8268 116.78 78.3349 114.75 77.724C114.353 77.5303 113.98 77.4556 113.461 77.3649C107.178 75.4149 101.042 73.4811 94.9371 71.4275C96.146 69.9258 97.3242 68.5438 98.5025 67.1618C98.2578 66.9523 98.0132 66.7427 97.7685 66.5331C96.3342 68.1094 94.9 69.6857 93.3056 71.2714C91.097 70.9304 89.0485 70.5798 87 70.2293Z" fill="#89525D"/>
<path d="M77.5054 155.874C83.9363 155.556 90.2 155.28 96.4629 154.985C100.804 154.781 105.144 154.558 109.484 154.328C110.473 154.275 111.459 154.159 112.592 154.036C115.652 154 118.566 154 121.79 154C122.166 157.629 122.572 161.546 123 165.638C118.764 166.288 114.509 166.799 110.246 167.232C97.8656 168.488 85.4821 169.713 73.0992 170.945C72.3568 171.018 71.6087 171.034 70.6844 170.894C69.738 166.771 68.9704 162.83 68.2028 158.89C68.2028 158.89 68.1953 158.915 68.2139 158.753C68.155 157.925 68.0775 157.26 68 156.594C71.1126 156.365 74.2253 156.136 77.5054 155.874Z" fill="#E3FC87"/>
<path d="M113.52 77C113.889 77.0728 114.258 77.1456 114.641 77.468C114.762 79.229 115.571 80.3043 117.027 80.614C118.664 80.9621 120.044 80.3494 120.931 78.8666C121.232 79.3121 121.884 79.8964 121.77 80.1787C121.318 81.295 120.596 82.3017 120.027 83.3763C118.6 86.0742 117.157 88.7664 115.856 91.5232C115.715 91.8221 116.349 92.6926 116.822 93.0181C118.454 94.1427 120.175 95.1433 121.978 96.2426C124.227 97.8919 126.407 99.435 128.476 101.111C129.477 101.922 130.38 102.905 131.134 103.947C133.034 106.57 131.671 109.4 128.384 109.609C127.164 109.687 125.918 109.366 124.528 109.202C124.336 109.183 124.299 109.19 124.263 109.197C124.307 109.221 124.352 109.246 124.396 109.271C125.111 110.565 125.935 111.813 126.521 113.161C128.624 117.996 125.114 122.351 119.576 121.786C118.278 121.654 117.004 121.3 115.572 121.003C115.403 120.686 115.379 120.414 115.501 120.024C116.027 119.906 116.408 119.906 116.853 119.906C115.55 117.401 115.804 116.538 118.13 115.674C117.285 115.225 116.53 114.824 115.776 114.423C113.604 113.436 111.756 111.874 111.792 109.506C111.823 107.462 112.847 105.433 113.421 103.437C111.454 103.325 109.567 104.551 109.071 106.927C108.027 111.931 107.188 116.979 106.347 122.021C106.204 122.876 106.474 123.798 106.554 124.688C106.385 124.764 106.217 124.84 106.049 124.916C105.764 124.373 105.377 123.859 105.21 123.283C102.422 113.683 99.6643 104.074 96.8891 94.4702C96.6686 93.7069 96.3672 92.9663 95.9723 91.842C95.6841 93.8607 95.5118 95.9909 93.5002 96.0661C92.0109 96.1218 90.475 94.9646 88.902 94.3242C90.0914 98.936 91.3913 103.858 92.6258 108.796C93.8556 113.715 95.0199 118.651 96.2129 123.579C95.9786 123.67 95.7443 123.762 95.51 123.853C95.2324 123.294 94.8438 122.763 94.6936 122.172C92.4138 113.205 90.1833 104.226 87.8845 95.2637C87.6211 94.2369 87.0169 93.295 86.4589 92.068C85.9216 93.8681 85.7783 95.4436 85.0134 96.6292C84.0906 98.0597 82.4804 98.0355 80.6381 96.9319C82.5213 106.567 84.8792 115.746 86.6058 125.039C86.2721 125.107 85.9384 125.175 85.6047 125.243C83.5745 116.058 81.5442 106.872 79.5116 97.6753C76.9131 99.3875 76.8491 99.379 74.2309 96.8258C75.6296 107.048 78.3158 116.84 79.7681 126.827C79.4601 126.885 79.1522 126.942 78.8443 127C77.6847 121.328 76.5251 115.657 75.3207 109.766C73.0831 109.599 71.74 108.229 71.08 105.954C70.9849 105.71 70.9809 105.567 71.0349 105.217C71.2841 104.661 71.4751 104.313 71.7626 104.073C72.4984 105.841 72.398 108.027 75.2196 108.501C74.638 106.149 74.107 104.003 73.5852 101.693C73.5763 98.4632 73.3286 95.375 73.6083 92.3339C73.8614 89.5827 75.5101 87.5065 78.3116 86.6526C80.9367 85.8525 82.897 87.2417 84.7158 88.8392C85.6134 89.6276 86.4303 90.5053 87.217 91.2772C87.578 89.7369 87.7146 88.2285 88.2872 86.9031C89.4714 84.162 92.3525 83.7785 94.2705 86.0514C95.0196 86.939 95.7995 87.9654 96.0709 89.0491C96.7852 91.9014 98.7485 93.4012 101.212 94.7085C105.121 96.7829 108.886 99.118 112.753 101.272C113.701 101.8 114.891 101.915 115.823 102.462C118.658 104.128 121.422 105.912 124.298 107.701C124.477 107.729 124.572 107.706 124.667 107.682C124.612 107.557 124.557 107.432 124.453 107.178C124.247 105.897 123.67 104.592 124.03 103.627C124.572 102.178 126.165 102.15 127.678 102.456C127.79 102.386 127.83 102.259 127.802 102.027C125.261 100.139 122.87 98.2309 120.297 96.6018C113.189 92.1016 106.002 87.7237 98.8579 83.2792C98.2245 82.8851 97.6762 82.3582 97.0883 81.893C97.218 81.7249 97.3477 81.5569 97.4773 81.3888C98.1897 81.6853 98.8802 82.1628 99.6179 82.2495C105.078 82.891 110.539 83.5419 116.017 83.9894C117.652 84.1229 119.112 83.2739 119.938 81.5801C115.484 82.119 113.711 80.8224 113.52 77ZM116.233 86.6588C114.95 87.8023 113.666 88.9458 112.241 90.2154C113.07 90.7279 113.72 91.1301 114.536 91.6353C115.239 89.8249 115.856 88.2354 116.532 86.5932L116.542 86.5247C116.542 86.5247 116.491 86.6627 116.233 86.6588ZM119.48 114.959C119.533 114.948 119.587 114.938 119.64 114.928C119.587 114.902 119.533 114.876 119.489 114.588C119.558 113.889 119.435 112.683 119.726 112.576C121.18 112.043 122.742 111.799 124.326 111.44C124.107 111.097 123.781 110.591 123.458 110.083C121.637 107.215 118.49 106.089 115.667 104.206C115.508 104.125 115.271 103.931 115.201 103.978C112.265 105.958 112.28 110.754 115.408 112.918C116.777 113.553 118.145 114.187 119.48 114.959ZM100.546 102.549C100.899 106.686 104.806 106.743 107.242 108.534C107.825 107.124 108.132 105.804 108.863 104.777C109.611 103.728 110.775 102.967 111.823 102.02C107.364 99.4609 102.89 96.8931 98.0209 94.098C98.91 97.1081 99.6723 99.6891 100.546 102.549ZM94.3044 94.1149C94.1758 92.0172 94.2448 89.8798 93.8232 87.8409C93.6498 87.0025 92.4848 85.9075 91.6512 85.7955C90.9267 85.6982 89.7416 86.6522 89.2716 87.4387C88.0474 89.4872 89.9295 94.1294 92.234 94.8908C92.7586 95.0641 93.5118 94.5643 94.3044 94.1149ZM84.3806 90.807C83.4658 88.4546 81.2966 87.3388 78.4225 88.1381C79.2148 90.5138 79.8854 92.9266 80.8663 95.2099C81.1443 95.8567 82.4681 96.6101 83.0601 96.4435C83.7838 96.2398 84.5656 95.1847 84.7338 94.3784C84.949 93.3467 84.5773 92.1959 84.3806 90.807ZM106.304 86.4951C107.507 87.2549 108.667 88.0974 109.932 88.7373C110.509 89.029 111.512 89.2314 111.943 88.9362C113.329 87.987 114.538 86.787 116.061 85.4723C112.185 84.9823 109.004 84.546 105.811 84.2107C105.289 84.1558 104.718 84.5459 103.791 84.8573C104.848 85.5473 105.462 85.9484 106.304 86.4951ZM75.8725 96.7462C76.422 97.0443 77.1521 97.7101 77.4787 97.5542C77.9653 97.322 78.4646 96.496 78.4387 95.9466C78.3223 93.4805 78.0221 91.0229 77.7612 88.2774C77.0933 88.6572 76.8651 88.7447 76.69 88.893C74.0385 91.1385 74.7235 93.7936 75.8725 96.7462ZM102.335 107.152C102.801 109.371 103.13 111.632 103.813 113.783C104.026 114.453 105.195 114.828 105.996 115.387C107.541 109.889 107.541 109.889 102.91 107.44C102.8 107.381 102.687 107.328 102.335 107.152ZM130.876 106.166C130.189 104.759 127.579 103.143 126.184 103.452C125.641 103.573 124.965 104.15 124.795 104.662C124.431 105.761 126.44 108.336 127.81 108.488C129.298 108.652 130.534 108.14 130.876 106.166ZM126.111 115.839C125.675 113.75 123.871 112.443 121.7 112.683C120.422 112.824 119.927 113.62 120.782 114.554C122.084 115.977 123.634 117.178 125.423 118.781C125.767 117.496 125.95 116.809 126.111 115.839ZM119.515 117.088C118.788 117.088 118.061 117.088 117.239 117.088C117.078 119.144 118.538 119.8 119.848 120.385C121.58 121.158 123.032 120.331 124.796 119.049C122.907 118.325 121.368 117.735 119.515 117.088Z" fill="#4C304A"/>
<path d="M129 168C128.625 167.513 128.298 166.849 128 166C128.369 166.484 128.708 167.153 129 168Z" fill="#7074FA"/>
<path d="M78.6426 39.9617C71.878 44.8234 65.5596 40.0983 64.3244 35.078C63.6612 32.3823 64.0188 29.8754 65.3619 27.3681C69.5715 20.9177 78.2877 21.8298 81.1932 28.6637C82.8345 32.5241 81.9655 36.3985 78.6426 39.9617ZM77.9667 39.3522C80.8566 36.9466 81.8037 33.7675 80.8573 30.1079C79.9884 26.7479 77.7791 24.5547 74.5066 23.9779C71.0747 23.373 68.1603 24.4633 66.0199 27.9057C63.9077 31.9319 64.5802 36.3009 67.7426 39.1785C70.3287 41.5318 74.8574 42.0555 77.9667 39.3522Z" fill="#E3FC87"/>
<path d="M24.5588 114C32.1338 115.196 35.2217 121.909 31.2844 128.455C27.208 132.362 22.841 133.044 19.0187 130.478C15.7537 128.287 14.2689 124.279 15.3486 120.571C16.5335 116.502 19.8196 114.119 24.5588 114ZM24.6945 114.804C20.2888 114.749 16.9401 117.159 15.9705 121.082C15.066 124.741 16.9777 128.76 20.4002 130.394C24.0098 132.118 28.0326 131.141 30.7338 127.791C34.1844 122.094 31.5011 116.04 24.6945 114.804Z" fill="#BFE0FF"/>
<path d="M68.4584 160C69.3027 163.648 70.1416 167.469 71 171.447C69.7393 171.742 68.4591 171.88 67 172C68.6743 168.193 68.5904 164.186 68.4584 160Z" fill="#7378FC"/>
<path d="M71.7173 104.293C71.5255 104.643 71.3338 104.994 71.0726 105.444C63.3666 101.825 55.7301 98.1067 48 94.1918C52.5835 83.6639 57.2605 73.332 61.9375 63C69.716 67.2567 78.0115 69.7547 87.0905 70.1627C89.2993 70.5006 91.3371 70.8444 93.6502 71.2212C94.3259 71.3193 94.7263 71.3843 95.1267 71.4493C101.231 73.3458 107.335 75.2424 113.584 77.1547C113.923 81.0153 115.702 82.3194 120.173 81.7774C119.344 83.4811 117.879 84.3351 116.237 84.2008C110.739 83.7507 105.256 83.0959 99.7755 82.4507C99.035 82.3635 98.3419 81.8832 97.6268 81.585C97.4966 81.754 97.3664 81.9231 97.2363 82.0921C97.8264 82.5601 98.3768 83.0901 99.0127 83.4864C106.184 87.957 113.399 92.3606 120.533 96.8871C123.116 98.5258 125.517 100.445 128 102.41C127.956 102.629 127.913 102.674 127.87 102.72C126.424 102.468 124.825 102.496 124.281 103.954C123.919 104.924 124.498 106.237 124.627 107.608C124.554 107.879 124.509 107.94 124.464 108C121.662 106.252 118.889 104.457 116.043 102.782C115.107 102.231 113.913 102.116 112.961 101.585C109.079 99.4181 105.299 97.0693 101.375 94.9827C98.9028 93.6678 96.9321 92.1591 96.215 89.2901C95.9426 88.2001 95.1597 87.1677 94.4078 86.2748C92.4825 83.9887 89.5904 84.3744 88.4017 87.1316C87.8269 88.4647 87.6897 89.982 87.3274 91.5313C86.5377 90.7549 85.7177 89.8721 84.8167 89.0791C82.991 87.4722 81.0232 86.0748 78.3881 86.8796C75.5759 87.7385 73.921 89.8269 73.6669 92.5942C73.3861 95.6531 73.6348 98.7595 73.513 102.008C72.8211 102.878 72.2692 103.586 71.7173 104.293Z" fill="#FE9482"/>
<path d="M62.034 62.534C57.4132 73.2148 52.8044 83.7564 48.1624 94.4356C46.3663 97.4402 46.3667 97.439 42.9917 96.2869C40.3594 95.3883 37.7261 94.4931 35 93.3995C35.0085 92.9723 35.1123 92.743 35.2117 92.5118C41.3043 78.3413 47.3965 64.1706 53.4888 50C56.8705 52.0986 60.2687 54.1708 63.6075 56.3386C63.9238 56.544 64.0952 57.4322 63.9447 57.8602C63.4019 59.4049 62.6925 60.8884 62.034 62.534ZM59.7925 56.8599C59.3831 54.6977 56.5409 53.8479 54.8162 54.3066C53.5875 54.6333 52.7631 55.4465 53.1218 56.7981C53.5919 58.5692 55.037 59.2002 56.6832 59.3069C58.2166 59.4064 59.5759 59.1042 59.7925 56.8599Z" fill="#BFE0FF"/>
<path d="M53 49.4392C46.8393 63.7422 40.6175 77.9535 34.3954 92.1647C34.2938 92.3966 34.1879 92.6265 34.0542 92.9884C33.718 93.0327 33.4116 92.946 33 92.7958C39.2296 78.1997 45.5643 63.667 51.9447 49C52.3065 49.0263 52.6227 49.1869 53 49.4392Z" fill="#503953"/>
<path d="M72.8962 129C73.0651 129.161 73.0888 129.337 72.9654 129.668C67.1946 131.168 64.3877 136.602 66.5239 142.007C68.0402 145.843 71.4674 147.666 75.9517 147.021C75.9715 147.201 75.9913 147.382 76 147.698C70.9621 149.06 66.2319 145.691 65.1669 140.125C64.1815 134.976 67.6632 129.875 72.8962 129Z" fill="#BFE0FF"/>
<path d="M76 146.815C71.5735 147.609 68.1971 145.812 66.7033 142.031C64.5986 136.703 67.364 131.348 73.0468 130C73.8964 134.096 74.6071 138.213 75.3086 142.332C75.5537 143.772 75.7759 145.216 76 146.815Z" fill="#BFE0FF"/>
<path d="M115.222 115C116.207 115.332 117.052 115.779 118 116.28C115.393 117.244 115.108 118.206 116.569 121C116.07 121 115.643 121 115.045 120.978C114.945 119.009 115.014 117.062 115.222 115Z" fill="#F18D7D"/>
<path d="M121 78.8281C120.274 79.7697 118.921 80.1618 117.316 79.9391C115.887 79.7409 115.094 79.0527 115 78C116.96 78.2215 118.908 78.5284 121 78.8281Z" fill="#F6907F"/>
<path d="M95.3767 70.9808C94.9366 71.0352 94.5276 70.9677 94 70.8563C95.339 69.2083 96.7966 67.6041 98.2541 66C98.5027 66.2133 98.7514 66.4265 99 66.6398C97.8026 68.0462 96.6053 69.4526 95.3767 70.9808Z" fill="#482D47"/>
<path d="M100.505 103.06C99.6752 100.422 98.9019 97.9192 98 95C102.939 97.7106 107.477 100.201 112 102.683C110.938 103.601 109.756 104.339 108.998 105.357C108.256 106.352 107.945 107.633 107.354 109C104.883 107.263 100.92 107.208 100.505 103.06Z" fill="#FB9381"/>
<path d="M115.513 105C118.525 106.624 122.016 107.704 124.037 110.455C124.395 110.942 124.757 111.428 125 111.756C123.243 112.101 121.509 112.335 119.897 112.846C119.573 112.948 119.71 114.105 119.638 114.894C119.642 115.013 119.66 115 119.66 115C118.142 114.391 116.624 113.783 115.045 112.918C115.002 111.422 114.966 110.179 115.053 108.943C115.146 107.626 115.355 106.314 115.513 105Z" fill="#FA9280"/>
<path d="M94 94.3286C93.3263 94.6434 92.6218 95.1357 92.1312 94.965C89.9759 94.2151 88.2157 89.6428 89.3606 87.6252C89.8002 86.8505 90.9085 85.9109 91.5862 86.0068C92.3658 86.1171 93.4554 87.1955 93.6175 88.0213C94.0118 90.0295 93.9473 92.1347 94 94.3286Z" fill="#BB6E6D"/>
<path d="M84.5833 91.2175C84.7564 92.522 85.1645 93.7286 84.9282 94.8103C84.7436 95.6556 83.8854 96.7619 83.091 96.9754C82.4411 97.1501 80.9878 96.3602 80.6827 95.682C79.6059 93.2882 78.8697 90.7585 78 88.2677C81.1551 87.4296 83.5363 88.5995 84.5833 91.2175Z" fill="#BA6E6D"/>
<path d="M106.346 86.2734C105.634 85.7874 105.034 85.3762 104 84.6684C104.906 84.3491 105.464 83.949 105.976 84.0053C109.098 84.3492 112.209 84.7967 116 85.2992C114.511 86.6475 113.329 87.8782 111.973 88.8517C111.552 89.1545 110.57 88.9468 110.006 88.6477C108.768 87.9914 107.634 87.1274 106.346 86.2734Z" fill="#86505B"/>
<path d="M75.8025 96.9671C74.8968 93.9314 74.3249 91.0765 76.539 88.6619C76.6852 88.5024 76.8758 88.4084 77.4335 88C77.6513 90.9521 77.902 93.5947 77.9992 96.2464C78.0208 96.8373 77.6039 97.7254 77.1976 97.9751C76.9248 98.1427 76.3152 97.4268 75.8025 96.9671Z" fill="#B96D6C"/>
<path d="M103 107C103.207 107.127 103.309 107.187 103.408 107.251C107.556 109.948 107.556 109.948 106.172 116C105.455 115.385 104.407 114.973 104.217 114.235C103.605 111.866 103.31 109.377 103 107Z" fill="#F89180"/>
<path d="M131 106.844C130.664 108.631 129.453 109.133 127.996 108.972C126.653 108.823 124.685 106.3 125.043 105.223C125.209 104.721 125.871 104.156 126.403 104.038C127.769 103.734 130.327 105.318 131 106.844Z" fill="#F99280"/>
<path d="M126 116.258C125.851 117.069 125.692 117.741 125.394 119C123.843 117.43 122.498 116.254 121.369 114.861C120.628 113.946 121.058 113.166 122.165 113.028C124.048 112.793 125.612 114.073 126 116.258Z" fill="#F6907F"/>
<path d="M119.585 117.032C121.377 117.719 123.004 118.375 125 119.181C123.136 120.607 121.601 121.528 119.77 120.668C118.386 120.017 116.843 119.287 117.013 117C117.882 117 118.65 117 119.585 117.032Z" fill="#F89180"/>
<path d="M116 105.307C115.902 106.67 115.693 107.943 115.601 109.221C115.514 110.421 115.55 111.628 115.486 113C112.191 111.313 112.173 106.849 115.424 105.007C115.501 104.963 115.764 105.143 116 105.307Z" fill="#BB6E6D"/>
<path d="M72 104.336C72.3934 103.481 72.8706 102.74 73.4607 102C74.0345 104.262 74.4952 106.523 75 109C72.5515 108.5 72.6385 106.198 72 104.336Z" fill="#B96D6C"/>
<path d="M117 86C116.417 87.9115 115.833 89.823 115.169 92C114.397 91.3925 113.783 90.9088 113 90.2925C114.347 88.7658 115.56 87.3907 116.892 86.0113C117.01 86.0071 117 86 117 86Z" fill="#6B6CEF"/>
<path d="M125 109.944C124.707 109.607 124.353 109.329 124 109.051C124.289 108.975 124.578 108.9 124.852 109.487C124.837 110.15 124.94 110.003 125 109.944Z" fill="#6F72FE"/>
<path d="M66 27.7846C68.0926 24.6256 71.1989 23.5677 74.8568 24.1546C78.3448 24.7142 80.6996 26.842 81.6257 30.1021C82.6344 33.6527 81.6249 36.7371 78.3472 39C76.9617 37.8881 75.749 36.8721 74.5906 35.8014C71.7139 33.1425 68.8619 30.4585 66 27.7846Z" fill="#263A83"/>
<path d="M66.3023 28C69.1098 30.5924 71.8182 33.2855 74.5502 35.9537C75.6502 37.028 76.8018 38.0475 78 39.2027C75.158 41.8664 70.5741 41.3565 67.9564 39.0654C64.7554 36.2639 64.0748 32.0105 66.3023 28Z" fill="#BFE0FF"/>
<path d="M31 127.755C28.4732 130.907 24.389 131.868 20.7243 130.173C17.2496 128.565 15.3087 124.612 16.227 121.013C17.2114 117.155 20.6112 114.785 25.2484 115.015C25.5497 116.13 25.6533 117.075 25.8301 118.006C26.5408 121.751 27.7198 125.272 31 127.755Z" fill="#263A83"/>
<path d="M31.2416 128C27.5326 125.52 26.242 121.897 25.4639 118.045C25.2704 117.087 25.157 116.116 25 115C32.2124 116.037 35.1947 122.163 31.2416 128Z" fill="#BFE0FF"/>
<path d="M60 57.2978C59.7663 59.744 58.3598 60.097 56.773 59.9808C55.0693 59.8561 53.574 59.1191 53.0875 57.0502C52.7162 55.4715 53.5693 54.5215 54.8408 54.1399C56.6257 53.6041 59.5669 54.5968 60 57.2978ZM56.4714 58.6209C57.2577 58.2451 58.044 57.8693 58.8303 57.4934C58.151 56.8134 57.547 55.7716 56.771 55.5564C56.0135 55.3463 55.0805 55.9806 54.2245 56.2442C54.8686 57.0177 55.5127 57.7913 56.4714 58.6209Z" fill="#503952"/>
<path d="M56.2684 58C55.3984 57.4792 54.6992 56.9767 54 56.4741C54.9292 56.3028 55.9421 55.8908 56.7644 56.0272C57.6068 56.1671 58.2626 56.8439 59 57.2857C58.1464 57.5299 57.2928 57.7741 56.2684 58Z" fill="#F3E9E2"/>
<circle cx="95" cy="95" r="93" stroke="#E3FC87" stroke-width="3"/>
<circle cx="161" cy="97" r="9" fill="#BFE0FF"/>
</svg>
