<svg width="221" height="198" viewBox="0 0 221 198" fill="none" xmlns="http://www.w3.org/2000/svg">
<path d="M35.4999 115.999L42 135.5C42 135.5 66.7831 154.919 76.5432 157.69C87.3555 160.759 124.921 154.174 124.921 154.174C126.949 149.816 127.57 147.058 126.418 144.046C126.418 144.046 95.3498 147.117 76.9292 142.93C55.1264 137.973 35.4999 115.999 35.4999 115.999Z" fill="#C4DB71"/>
<path d="M33.4402 105.47L40 131.109C40 131.109 59.6483 151.043 76.661 157.477C80.1322 158.79 90.6825 158.196 99.6785 157.585C109.555 156.913 124.817 153.86 124.817 153.86C127.803 146.73 127.929 143.004 121.313 137.59C121.313 137.59 111.991 137.715 106.055 137.025C97.0178 135.975 92.2332 134.011 83.7513 131.109C72.034 127.099 65.8144 123.978 55.0034 118.25C46.3222 113.649 33.4402 105.47 33.4402 105.47Z" fill="#E3FC87"/>
<path d="M129.381 89.4694C129.381 89.4694 126.955 68.5008 117.455 60.2861C111.316 54.9771 105.287 51.63 98.1468 51.4699C91.0064 51.3099 78.9792 55.8462 73.2036 64.886C66.8193 74.8786 68.6857 87.1102 75.2541 93.8279C87.5032 106.356 103.107 102.277 103.107 102.277L127.454 94.4574C127.454 94.4574 146.289 87.0539 156.913 84.4365C160.776 83.4848 168.921 84.3433 174.556 88.2248C183.042 94.0703 186.225 103.007 182.23 112.533C178.757 120.816 174.015 125.551 165.214 127.701C158.723 129.287 154.503 128.143 148.417 125.9C132.663 120.094 129.381 89.4694 129.381 89.4694Z" stroke="#BFE0FF" stroke-width="8"/>
<path d="M147.678 125.623C154.621 128.266 158.891 129.196 166.382 127.496" stroke="#ABC9E4" stroke-width="8"/>
<path d="M126.291 75.5498C126.291 75.5498 128.656 83.9968 129.217 88.6554C129.863 94.018 131.695 101.256 131.695 101.256" stroke="#ABC9E4" stroke-width="8"/>
<path d="M122.852 134.877L136.612 141.159C137.088 141.377 137.529 141.33 137.72 141.297C137.933 141.261 138.098 141.198 138.186 141.161C138.364 141.086 138.506 140.999 138.581 140.951C138.747 140.844 138.918 140.714 139.068 140.593C139.382 140.342 139.791 139.987 140.267 139.56C141.225 138.698 142.541 137.463 144.084 135.986C147.174 133.028 151.217 129.058 155.209 125.072C159.201 121.086 163.154 117.072 166.062 114.028C167.513 112.509 168.719 111.217 169.542 110.284C169.948 109.825 170.29 109.42 170.525 109.108C170.633 108.965 170.773 108.769 170.88 108.565C170.922 108.483 171.039 108.256 171.085 107.961C171.123 107.717 171.187 106.701 170.134 106.22C169.563 105.959 167.939 105.218 165.949 104.309C162.532 102.748 158.033 100.694 155.93 99.7343C155.25 99.4244 154.619 99.6319 154.498 99.6719L154.495 99.6729C154.282 99.7429 154.114 99.8345 154.021 99.8877C153.824 100.002 153.631 100.143 153.471 100.266C153.136 100.524 152.714 100.888 152.236 101.317C151.272 102.185 149.962 103.431 148.439 104.919C145.388 107.899 141.418 111.906 137.504 115.928C133.589 119.95 129.718 123.999 126.864 127.066C125.439 128.597 124.256 129.895 123.446 130.827C123.045 131.288 122.711 131.686 122.482 131.988C122.376 132.128 122.246 132.306 122.145 132.485C122.105 132.555 121.996 132.75 121.935 133.002C121.905 133.123 121.849 133.403 121.922 133.742C122.009 134.148 122.287 134.619 122.852 134.877Z" fill="#263A83" stroke="#E3FC87" stroke-width="3.5"/>
<path d="M136.316 113.501C136.316 113.501 138.842 119.027 142.94 122.127" stroke="#BFE0FF" stroke-width="8"/>
<path d="M143.624 149.52L124.81 151.865L124.718 142.488L121.132 137.917C121.132 137.917 128.728 139.186 130.383 136.273C131.265 134.719 132.349 133.291 133.329 130.95C135.065 126.806 136.079 123.287 139.458 119.879C142.546 116.764 144.791 115.77 149.499 113.795C151.752 112.85 151.816 117.645 151.816 117.645C151.816 117.645 150.849 120.803 148.78 122.126C147.55 122.912 145.741 122.99 144.521 123.791C143.117 124.714 142.533 125.982 142.074 127.208C141.415 128.968 142.213 130.477 144.21 131.384C146.488 132.418 149.886 132.18 151.708 130.397C152.375 129.744 153.237 128.681 153.177 127.743C153.098 126.502 154.183 125.926 154.183 125.926C154.183 125.926 156.145 123.889 157.296 122.814C158.166 122.002 158.872 123.228 158.677 125.845C158.468 128.631 157.756 131.929 156.875 134.624C155.73 138.123 156.564 139.724 154.747 142.988C153.477 145.268 151.807 146.53 149.505 147.938C147.485 149.172 143.624 149.52 143.624 149.52Z" fill="#FAB9A8"/>
<path d="M144.958 117.98L142.163 117.504C144.851 115.846 146.602 114.837 149.784 113.783C149.784 113.783 150.135 113.676 150.568 113.874C151.234 114.178 151.98 115.738 151.401 116.387C150.036 117.917 144.958 117.98 144.958 117.98Z" fill="#C98573" fill-opacity="0.4"/>
<circle cx="126" cy="95" r="93" stroke="#BFE0FF" stroke-width="3"/>
</svg>
