<svg width="257" height="272" viewBox="0 0 257 272" fill="none" xmlns="http://www.w3.org/2000/svg">
<circle cx="128.072" cy="128.072" r="128.072" fill="#F7F7F7"/>
<rect x="50.0088" y="40.251" width="154.906" height="228.09" rx="31.713" fill="#BFE0FF" stroke="#141319" stroke-width="7.31839"/>
<path d="M109.776 61.5962C109.776 59.2385 111.687 57.3271 114.045 57.3271H139.659C142.017 57.3271 143.928 59.2385 143.928 61.5962C143.928 63.9539 142.017 65.8653 139.659 65.8653H114.045C111.687 65.8653 109.776 63.9539 109.776 61.5962Z" fill="black"/>
<path d="M141.565 61.5967C141.565 62.944 140.473 64.0362 139.126 64.0362C137.779 64.0362 136.687 62.944 136.687 61.5967C136.687 60.2494 137.779 59.1572 139.126 59.1572C140.473 59.1572 141.565 60.2494 141.565 61.5967Z" fill="#333335"/>
<rect x="32" y="99" width="190" height="64" rx="13.3528" fill="#E4E3E3"/>
<g filter="url(#filter0_d_1139_12326)">
<rect x="32" y="99" width="190" height="58" rx="13.3528" fill="white"/>
</g>
<circle cx="63.0762" cy="128.076" r="17.0762" fill="#BFE0FF"/>
<path d="M65.8463 126C66.4503 126 66.94 126.49 66.94 127.094V131.312C66.94 133.211 65.4007 134.75 63.5019 134.75C61.603 134.75 60.0637 133.211 60.0637 131.312V127.094C60.0637 126.49 60.5534 126 61.1575 126H65.8463ZM57.0938 126L59.8326 125.999C59.6139 126.263 59.4728 126.594 59.4441 126.956L59.4387 127.094V131.312C59.4387 132.02 59.62 132.686 59.9387 133.266C59.5943 133.416 59.2135 133.5 58.8133 133.5C57.2595 133.5 56 132.24 56 130.687V127.094C56 126.49 56.4897 126 57.0938 126ZM67.1712 125.999L69.9062 126C70.5103 126 71 126.49 71 127.094V130.687C71 132.241 69.7408 133.5 68.1875 133.5C67.7881 133.5 67.4081 133.417 67.064 133.267L67.0988 133.203C67.3667 132.695 67.53 132.123 67.56 131.516L67.565 131.312V127.094C67.565 126.678 67.4172 126.296 67.1712 125.999ZM63.5 121C64.7081 121 65.6875 121.979 65.6875 123.187C65.6875 124.396 64.7081 125.375 63.5 125.375C62.2919 125.375 61.3125 124.396 61.3125 123.187C61.3125 121.979 62.2919 121 63.5 121ZM68.5019 121.625C69.5374 121.625 70.3769 122.464 70.3769 123.5C70.3769 124.536 69.5374 125.375 68.5019 125.375C67.4663 125.375 66.6269 124.536 66.6269 123.5C66.6269 122.464 67.4663 121.625 68.5019 121.625ZM58.4981 121.625C59.5337 121.625 60.3731 122.464 60.3731 123.5C60.3731 124.536 59.5337 125.375 58.4981 125.375C57.4626 125.375 56.6231 124.536 56.6231 123.5C56.6231 122.464 57.4626 121.625 58.4981 121.625Z" fill="#323232"/>
<rect x="93.3096" y="119" width="105" height="6" fill="#BFE0FF"/>
<rect x="93.3096" y="131" width="48" height="6" fill="#BFE0FF"/>
<defs>
<filter id="filter0_d_1139_12326" x="28" y="99" width="198" height="66" filterUnits="userSpaceOnUse" color-interpolation-filters="sRGB">
<feFlood flood-opacity="0" result="BackgroundImageFix"/>
<feColorMatrix in="SourceAlpha" type="matrix" values="0 0 0 0 0 0 0 0 0 0 0 0 0 0 0 0 0 0 127 0" result="hardAlpha"/>
<feOffset dy="4"/>
<feGaussianBlur stdDeviation="2"/>
<feComposite in2="hardAlpha" operator="out"/>
<feColorMatrix type="matrix" values="0 0 0 0 0 0 0 0 0 0 0 0 0 0 0 0 0 0 0.25 0"/>
<feBlend mode="normal" in2="BackgroundImageFix" result="effect1_dropShadow_1139_12326"/>
<feBlend mode="normal" in="SourceGraphic" in2="effect1_dropShadow_1139_12326" result="shape"/>
</filter>
</defs>
</svg>
