<svg width="163" height="163" viewBox="0 0 163 163" fill="none" xmlns="http://www.w3.org/2000/svg">
<rect width="162.712" height="162.712" rx="32.2801" fill="url(#paint0_linear_1479_13040)"/>
<path d="M58.405 38.9893C43.044 46.9866 32.5664 62.958 32.5664 81.3561C32.5664 107.766 54.1568 129.176 80.7898 129.176C107.423 129.176 129.013 107.766 129.013 81.3561C129.013 58.9985 113.54 40.2245 92.6342 34.9893C88.8446 34.0403 80.7898 32.0831 80.7898 33.5362C80.7898 34.9893 80.7898 88.5067 80.7898 88.5067" stroke="white" stroke-opacity="0.6" stroke-width="13" stroke-linecap="round"/>
<path d="M66.3855 39.1252C66.3855 43.5841 62.7404 47.1987 58.2439 47.1987C53.7474 47.1987 50.1023 43.5841 50.1023 39.1252C50.1023 34.6664 53.2337 31.0518 58.2439 31.0518C63.4653 31.0518 66.3855 34.6664 66.3855 39.1252Z" fill="white" fill-opacity="0.5"/>
<defs>
<linearGradient id="paint0_linear_1479_13040" x1="8.14162" y1="-10.5576" x2="263.527" y2="207.307" gradientUnits="userSpaceOnUse">
<stop stop-color="#BFE0FF"/>
<stop offset="1" stop-color="#2A428C"/>
</linearGradient>
</defs>
</svg>
