<svg width="190" height="190" viewBox="0 0 190 190" fill="none" xmlns="http://www.w3.org/2000/svg">
<path d="M152.608 167.683C145.289 173.972 137.026 178.666 128.06 182.156C117.409 186.302 106.314 188.398 94.9324 188.311C69.5915 188.119 47.4595 179.767 29.5228 161.459C26.8284 158.709 24.5692 155.532 22.202 152.373C23.2935 151.06 24.2367 149.873 25.298 148.803C39.0076 134.98 62.218 132.142 79.1812 142.274C83.6874 144.966 88.0544 147.89 92.4897 150.859C92.1798 153.455 92.4623 156.03 92.0001 158.5C85.5629 158.532 78.6772 158.406 72.388 158.412C69.8432 158.414 69.6937 158.618 70.4462 161.276C71.4518 161.276 72.5056 161.276 73.807 161.276C71.3928 166.447 69.0879 171.384 66.7358 176.422C85.76 176.422 104.529 176.422 123.589 176.422C120.858 171.301 118.239 166.39 115.524 161.298C116.863 161.219 117.853 161.161 118.809 161.105C119.091 158.414 119.091 158.418 116.583 158.41C110.295 158.391 103.731 158.686 97.4274 158.5C97.2832 156.75 97.4305 154.843 97.4274 153.286C103.566 156.027 109.685 156.497 116.013 154.418C120.087 153.08 124.27 152.149 128.613 152.522C130.522 152.686 132.418 152.995 134.322 153.228C134.324 153.219 134.305 153.22 134.302 153.31C134.388 153.491 134.497 153.533 134.699 153.627C135.59 154.533 136.407 155.335 137.228 156.13C137.231 156.124 137.218 156.13 137.247 156.255C139.237 158.036 141.581 158.294 144.102 158.326C147.419 161.124 150.476 163.983 152.608 167.683ZM54.6942 151.79C54.7617 151.496 54.8424 151.204 54.8947 150.907C55.5296 147.295 54.3674 144.324 51.5035 142.111C48.5563 139.834 45.2913 139.532 41.9882 141.268C38.7729 142.959 37.1026 145.764 37.1075 149.371C37.1136 153.802 40.4857 157.446 45.0003 158.183C48.9852 158.834 52.9825 156.279 54.6942 151.79Z" fill="#BFE0FF"/>
<path d="M49.2893 70.6296C49.2596 69.5743 49.7591 69.1156 50.9531 69.2663C55.5104 69.2684 59.9258 69.298 64.3412 69.298C88.6594 69.2979 112.978 69.2905 137.468 69.2687C138.161 69.3058 138.681 69.3599 139.039 69.3971C139.039 73.4525 139.039 77.3879 139.036 81.6173C138.989 82.5068 138.946 83.1023 138.828 83.8508C137.806 92.1302 135.578 99.8655 131.616 107.176C130.888 108.412 130.249 109.571 129.605 110.723C129.6 110.716 129.616 110.722 129.526 110.733C129.324 110.806 129.248 110.897 129.109 111.09C128.414 111.859 127.819 112.557 127.223 113.254C127.153 113.241 127.102 113.266 126.963 113.472C126.796 113.86 126.734 114.105 126.672 114.35C126.672 114.35 126.696 114.347 126.569 114.287C125.571 115.229 124.7 116.231 123.828 117.233C118.633 121.544 113.024 125.124 106.455 126.982C104.834 127.441 103.188 127.81 101.555 128.226C100.761 128.429 100.211 128.689 100.172 129.757C100.057 132.897 98.8606 134.265 95.3414 135.351C95.9775 141.166 96.6216 147.055 97.2838 153.1C97.4305 154.843 97.3131 157.714 97.2838 159.5C95.1859 159.675 93.4917 158.367 91.5515 158.343C91.8657 155.899 92.1798 153.454 92.4896 150.859C93.0814 146.11 93.7149 141.517 94.2258 136.91C94.2894 136.336 93.8427 135.303 93.3948 135.141C90.6705 134.16 89.2521 132.355 89.2509 129.448C89.2508 129.217 89.179 128.986 89.1189 128.624C79.5202 127.005 71.0748 123.018 63.7977 116.166C62.3395 114.543 61.0941 113.016 59.8149 111.393C59.6658 111.242 59.5505 111.186 59.4374 111.139C59.4397 111.147 59.4214 111.148 59.4372 111.016C58.5917 109.447 57.703 108.026 56.874 106.571C52.9761 99.731 51.1007 92.2565 50.0174 84.4013C49.9127 83.6429 49.7972 83.0235 49.6903 82.2334C49.5623 78.2518 49.4258 74.4407 49.2893 70.6296ZM87.1996 101.867C87.3634 102.411 87.6885 102.964 87.6612 103.498C87.5728 105.226 87.3549 106.947 87.1791 108.75C88.1707 108.75 88.9811 108.75 89.892 108.75C90.0643 107.035 90.207 105.417 90.3963 103.806C90.5028 102.9 90.3177 101.867 91.8122 101.714C92.1843 101.676 92.432 100.421 92.7534 99.6875C91.9447 99.4194 91.4667 99.2609 90.9133 99.0774C91.1179 96.9891 91.3113 95.0147 91.5097 92.9903C92.1112 92.8942 92.6271 92.8118 93.2101 92.7186C93.2852 91.9594 93.3545 91.2584 93.4273 90.522C92.8392 90.4019 92.3382 90.2997 91.7965 90.1891C91.9508 88.3459 92.0952 86.621 92.2492 84.7809C91.2794 84.7809 90.5194 84.7809 89.6175 84.7809C89.388 86.6431 89.1631 88.4679 88.9465 90.2248C88.0404 90.2248 87.3507 90.2248 86.5735 90.2248C86.7181 88.3504 86.8515 86.6209 86.993 84.7868C86.0527 84.7868 85.24 84.7868 84.3366 84.7868C84.1157 86.6611 83.9058 88.4423 83.6925 90.2528C83.0934 90.3383 82.5716 90.4127 82.027 90.4904C81.9223 91.2509 81.8264 91.9473 81.7254 92.6803C82.4085 92.8235 82.9105 92.9288 83.4461 93.0411C83.316 94.4778 83.1593 95.7963 83.0872 97.1195C83.0152 98.4424 82.8872 99.6652 81.0583 99.5494C81.0105 100.352 80.9721 100.999 80.9341 101.637C81.5066 101.806 81.9503 101.936 82.486 102.094C82.2953 104.359 82.1111 106.546 81.9251 108.755C82.9741 108.755 83.7327 108.755 84.5866 108.755C84.8032 106.861 85.1157 105.066 85.1782 103.263C85.2224 101.988 85.7963 101.717 87.1996 101.867ZM102.077 108.549C103.274 108.685 104.47 108.82 105.727 108.962C105.727 100.679 105.727 92.7409 105.727 84.5599C104.764 84.721 103.458 84.6097 103.257 85.0285C102.194 87.2437 100.291 87.6896 98.182 87.7796C98.182 88.7224 98.182 89.5249 98.182 90.4943C99.51 90.4943 100.692 90.4943 102.013 90.4943C102.013 96.515 102.013 102.367 102.077 108.549Z" fill="#E3FC87"/>
<path d="M111.468 34.4003C107.733 37.0275 104.079 39.5553 100.299 42.0681C100.174 42.0532 100.183 42.0605 100.183 42.0605C101.985 38.8686 103.773 35.6688 105.592 32.487C107.747 28.7188 109.929 24.9662 112.231 21.0508C112.45 20.8144 112.505 20.716 112.527 20.5996C112.527 20.5996 112.514 20.6202 112.505 20.6132C114.629 23.323 116.763 26.0398 119.033 28.9306C116.395 30.8232 113.971 32.562 111.468 34.4003Z" fill="#BFE0FF"/>
<path d="M138.328 45.3884C132.931 45.1163 129.383 41.227 129.55 35.9464C129.699 31.2173 133.615 27.5042 138.453 27.5059C143.271 27.5075 147.279 31.3909 147.392 36.1674C147.513 41.2324 143.714 45.1696 138.328 45.3884ZM131.5 34.0002C131.332 35.3081 131 36.5002 130.358 37.3373C130.595 41.8166 134.855 45.1295 139.511 44.5897C143.905 44.0803 147.28 39.6451 146.525 35.3733C145.838 31.4927 143.23 28.8736 139.493 28.3108C136.016 27.7872 133.439 30.2199 131.5 34.0002Z" fill="#BFE0FF"/>
<path d="M161.235 86.9229C161.173 86.7226 161.111 86.5224 161.028 86.2189C165.082 85.9238 168.485 87.9421 170.029 91.4659C171.5 94.8247 170.795 98.7099 168.237 101.339C165.457 104.196 161.837 104.809 157.65 103.054C157.614 102.811 157.709 102.625 158.023 102.431C162.188 104.104 166.286 103.069 168.515 99.7721C170.323 97.0992 170.519 94.2211 169.092 91.3684C167.502 88.1889 164.74 86.84 161.235 86.9229Z" fill="#263A83"/>
<path d="M91.4035 158.369C93.4917 158.366 95.4319 158.39 97.5455 158.379C104.007 158.366 110.295 158.39 116.583 158.41C119.091 158.418 119.091 158.413 118.809 161.104C117.853 161.161 116.863 161.219 115.524 161.298C118.239 166.389 120.858 171.301 123.589 176.421C104.529 176.421 85.76 176.421 66.7358 176.421C69.0879 171.383 71.3928 166.446 73.807 161.275C72.5056 161.275 71.4518 161.275 70.4462 161.275C69.6937 158.617 69.8432 158.413 72.388 158.411C78.6772 158.405 84.9663 158.401 91.4035 158.369ZM95.9981 164.187C90.6176 164.187 85.2369 164.169 79.8568 164.214C79.2812 164.219 78.3285 164.457 78.1998 164.819C77.6023 166.497 77.2335 168.256 76.7447 170.133C89.1428 170.133 101.265 170.133 113.573 170.133C113.038 168.542 112.477 167.086 112.067 165.589C111.751 164.434 111.099 164.147 109.963 164.162C105.43 164.223 100.895 164.187 95.9981 164.187Z" fill="#E3FC87"/>
<path d="M54.6388 151.924C52.9825 156.279 48.9853 158.833 45.0003 158.183C40.4857 157.445 37.1136 153.801 37.1076 149.371C37.1026 145.764 38.7729 142.958 41.9882 141.268C45.2913 139.531 48.5563 139.833 51.5035 142.11C54.3674 144.323 55.5296 147.294 54.8947 150.906C54.8424 151.203 54.7617 151.495 54.6388 151.924ZM52.9386 144.765C50.0595 141.059 46.0019 140.013 42.2277 142.005C38.8206 143.804 37.1494 147.868 38.2836 151.597C39.6683 156.15 44.6573 158.604 49.0005 156.869C53.7781 154.961 55.5323 149.851 52.9386 144.765Z" fill="#BFE0FF"/>
<path d="M134.322 153.228C133.641 150.897 133.187 148.564 134.103 146.159C135.576 142.295 139.655 139.697 143.508 140.229C147.653 140.801 151.104 144.213 151.402 148.035C151.776 152.82 149.32 156.576 144.945 157.905C144.714 157.975 144.477 158.02 144.128 158.154C141.581 158.294 139.237 158.036 137.374 156.179C139.218 156.422 140.964 156.865 142.862 157.309C146.794 157.043 149.402 154.917 150.435 151.262C151.319 148.136 150.04 144.542 147.36 142.618C144.17 140.327 139.65 140.612 136.872 143.278C133.915 146.116 133.547 150.206 135.927 154.071C136.011 154.205 136.082 154.264 136.149 154.31C136.137 154.308 136.141 154.283 136.189 154.399C136.566 155.055 136.896 155.596 137.225 156.137C136.407 155.335 135.59 154.532 134.675 153.55C134.517 153.265 134.426 153.215 134.305 153.22C134.305 153.22 134.324 153.219 134.322 153.228Z" fill="#263A83"/>
<path d="M134.302 153.31C134.426 153.215 134.517 153.265 134.601 153.447C134.497 153.532 134.388 153.491 134.302 153.31Z" fill="#E36352"/>
<path d="M126.739 114.267C126.702 114.078 126.803 113.847 127.021 113.536C127.05 113.713 126.963 113.969 126.739 114.267Z" fill="#263A83"/>
<path d="M25.4636 79.4701C20.1313 79.4051 16.9287 77.35 15.5837 73.2547C14.3352 69.4531 15.8922 65.1609 19.3269 62.9354C22.6003 60.8145 27.0959 61.1923 30.116 63.8421C33.0159 66.3864 33.9031 70.9699 32.1568 74.4837C31.8622 75.0766 31.4863 75.6292 31.0864 76.3085C29.2146 77.4209 27.4043 78.4251 25.4636 79.4701ZM25.644 78.6413C27.0758 77.8473 28.5077 77.0532 30.1202 76.0677C32.7043 72.9764 33.0215 69.1983 30.9632 66.0279C29.0406 63.0666 25.2953 61.6521 21.9428 62.6211C17.9376 63.7788 15.2766 67.9172 16.0348 71.8092C16.933 76.4198 20.5965 79.0885 25.644 78.6413Z" fill="#263A83"/>
<path d="M98.41 29.4031C96.6783 33.8392 94.9889 38.141 93.2996 42.4428C93.195 42.4245 93.0903 42.4062 92.9856 42.3879C92.3804 34.379 91.7751 26.3702 91.1576 18.1982C94.9874 18.1982 98.7519 18.1982 102.819 18.1982C101.346 21.9341 99.899 25.6014 98.41 29.4031Z" fill="#BFE0FF"/>
<path d="M77.82 20.4148C79.1646 20.0436 80.371 19.7254 81.7366 19.3652C83.5617 27.3502 85.3427 35.1426 87.1238 42.935C87.0136 42.9924 86.9034 43.0497 86.7932 43.1071C81.6717 36.2701 76.5502 29.4331 71.2651 22.3778C73.5685 21.6921 75.6252 21.0799 77.82 20.4148Z" fill="#BFE0FF"/>
<path d="M112.429 20.6074C112.505 20.7159 112.45 20.8142 112.288 20.9356C112.253 20.8562 112.293 20.7358 112.429 20.6074Z" fill="#6F72FE"/>
<path d="M100.17 42.0488C100.134 42.1289 100.102 42.213 100.069 42.2972C100.058 42.2278 100.046 42.1584 100.109 42.0746C100.183 42.0602 100.174 42.0529 100.17 42.0488Z" fill="#F7BBFD"/>
<path d="M42.9427 78.0868C41.1398 77.464 39.3368 76.8413 37.373 76.2029C41.4286 74.9556 45.4388 73.2765 49.169 70.6797C49.4258 74.441 49.5623 78.2521 49.578 82.1828C48.4922 81.4778 47.6002 80.5399 46.5425 79.8596C45.4248 79.1407 44.1493 78.6674 42.9427 78.0868Z" fill="#263A83"/>
<path d="M87.0325 101.86C85.7963 101.717 85.2224 101.989 85.1782 103.264C85.1158 105.067 84.8032 106.861 84.5866 108.755C83.7327 108.755 82.9742 108.755 81.9251 108.755C82.1111 106.546 82.2953 104.359 82.486 102.094C81.9503 101.937 81.5066 101.806 80.9341 101.638C80.9721 100.999 81.0105 100.353 81.0583 99.5498C82.8872 99.6656 83.0152 98.4428 83.0872 97.1199C83.1593 95.7967 83.316 94.4782 83.4462 93.0415C82.9105 92.9292 82.4086 92.8239 81.7254 92.6807C81.8264 91.9477 81.9223 91.2513 82.027 90.4908C82.5716 90.4131 83.0934 90.3387 83.6925 90.2532C83.9059 88.4427 84.1157 86.6615 84.3366 84.7872C85.24 84.7872 86.0527 84.7872 86.993 84.7872C86.8515 86.6213 86.7181 88.3508 86.5735 90.2252C87.3507 90.2252 88.0405 90.2252 88.9465 90.2252C89.1631 88.4683 89.388 86.6434 89.6175 84.7812C90.5194 84.7812 91.2794 84.7812 92.2492 84.7812C92.0952 86.6214 91.9508 88.3463 91.7965 90.1895C92.3382 90.3001 92.8392 90.4023 93.4274 90.5224C93.3545 91.2588 93.2852 91.9598 93.2102 92.719C92.6271 92.8122 92.1112 92.8946 91.5097 92.9907C91.3113 95.0151 91.1179 96.9895 90.9133 99.0778C91.4667 99.2613 91.9447 99.4198 92.7534 99.6879C92.432 100.421 92.1844 101.676 91.8123 101.714C90.3177 101.867 90.5028 102.9 90.3964 103.806C90.207 105.418 90.0643 107.035 89.892 108.75C88.9811 108.75 88.1707 108.75 87.1791 108.75C87.3549 106.947 87.5728 105.226 87.6612 103.499C87.6885 102.964 87.3634 102.411 87.0325 101.86ZM86.062 93.9146C85.9157 95.6842 85.7694 97.4539 85.6194 99.2672C86.5877 99.2672 87.329 99.2672 88.1472 99.2672C88.3292 97.0889 88.5007 95.0352 88.7241 92.3607C87.5084 92.9288 86.8024 93.2587 86.062 93.9146Z" fill="#263A83"/>
<path d="M102.045 108.384C102.013 102.366 102.013 96.5147 102.013 90.494C100.692 90.494 99.51 90.494 98.1819 90.494C98.1819 89.5246 98.1819 88.7221 98.1819 87.7794C100.291 87.6893 102.194 87.2434 103.257 85.0282C103.458 84.6094 104.764 84.7208 105.727 84.5596C105.727 92.7406 105.727 100.679 105.727 108.962C104.47 108.82 103.274 108.684 102.045 108.384Z" fill="#263A83"/>
<path d="M131.646 107.181C132.102 108.092 132.47 109.079 132.862 110.192C131.884 110.455 130.882 110.591 129.729 110.714C130.239 109.553 130.898 108.405 131.646 107.181Z" fill="#263A83"/>
<path d="M59.8149 111.393C59.73 111.432 59.6113 111.376 59.4639 111.225C59.5505 111.186 59.6658 111.242 59.8149 111.393Z" fill="#E36352"/>
<path d="M159.765 87.031C153.125 89.5227 151.536 96.6346 156.685 101.407C156.682 101.661 156.57 101.843 156.396 102.08C150.573 97.3366 152.118 89.2544 159.478 86.3848C159.674 86.5387 159.727 86.734 159.765 87.031Z" fill="#263A83"/>
<path d="M130.89 33.2879C132.764 29.6344 136.016 27.7865 139.493 28.3101C143.23 28.8729 145.838 31.492 146.525 35.3726C147.28 39.6444 143.905 44.0796 139.511 44.589C134.855 45.1288 130.595 41.8159 130.358 37.3365C130.29 36.0411 130.657 34.7227 130.89 33.2879Z" fill="#BFE0FF"/>
<path d="M33.7837 68.8826C28.3871 68.6104 24.839 64.7212 25.0056 59.4406C25.1548 54.7115 29.0714 50.9984 33.9086 51C38.7265 51.0016 42.7346 54.8851 42.8483 59.6615C42.9689 64.7265 39.1699 68.6638 33.7837 68.8826ZM26.9561 57.4944C26.7884 58.8023 26.4561 59.9944 25.8142 60.8314C26.0505 65.3107 30.3107 68.6236 34.967 68.0838C39.3613 67.5744 42.7364 63.1392 41.9806 58.8674C41.2939 54.9868 38.6864 52.3677 34.9494 51.805C31.4721 51.2814 28.8947 53.714 26.9561 57.4944Z" fill="#BFE0FF"/>
<path d="M26.3466 56.783C28.2199 53.1295 31.4723 51.2816 34.9497 51.8053C38.6866 52.368 41.2941 54.9871 41.9808 58.8677C42.7367 63.1395 39.3615 67.5747 34.9673 68.0841C30.3109 68.6239 26.0507 65.311 25.8145 60.8317C25.7462 59.5362 26.1136 58.2178 26.3466 56.783Z" fill="#BFE0FF"/>
<path d="M96.1797 164.188C100.895 164.188 105.43 164.223 109.963 164.163C111.099 164.148 111.751 164.434 112.067 165.589C112.477 167.086 113.038 168.542 113.573 170.133C101.265 170.133 89.1428 170.133 76.7447 170.133C77.2335 168.256 77.6023 166.497 78.1998 164.819C78.3284 164.458 79.2812 164.219 79.8568 164.214C85.2369 164.169 90.6176 164.188 96.1797 164.188Z" fill="#263A83"/>
<path d="M53.0069 144.882C55.5322 149.851 53.778 154.962 49.0005 156.87C44.6572 158.605 39.6683 156.15 38.2835 151.597C37.1493 147.868 38.8205 143.804 42.2276 142.006C46.0019 140.014 50.0594 141.059 53.0069 144.882Z" fill="#263A83"/>
<path d="M135.543 156.933C133.183 153.133 133.551 149.044 136.508 146.205C139.285 143.54 143.805 143.255 146.996 145.545C149.676 147.469 150.954 151.063 150.071 154.189C149.037 157.845 146.43 159.97 142.381 160.173C140.001 159.143 137.889 158.177 135.777 157.211C135.777 157.211 135.772 157.235 135.783 157.162C135.73 157.005 135.646 156.954 135.543 156.933Z" fill="#BFE0FF"/>
<path d="M135.927 154.071C136.01 154.026 136.094 154.078 136.16 154.237C136.082 154.264 136.011 154.205 135.927 154.071Z" fill="#716CE8"/>
<path d="M86.0791 93.7513C86.8023 93.2584 87.5083 92.9284 88.724 92.3604C88.5006 95.0348 88.3291 97.0886 88.1472 99.2668C87.3289 99.2668 86.5877 99.2668 85.6194 99.2668C85.7693 97.4535 85.9156 95.6839 86.0791 93.7513Z" fill="#E3FC87"/>
<circle cx="95" cy="95" r="93" stroke="#E3FC87" stroke-width="3"/>
</svg>
