<svg width="190" height="191" viewBox="0 0 190 191" fill="none" xmlns="http://www.w3.org/2000/svg">
<path d="M156.5 165C149.181 171.289 138.579 178.01 129.613 181.5C118.962 185.646 108.882 188.586 97.5 188.5C72.1592 188.308 47.9367 179.308 30 161C27.3056 158.25 21.8671 152.681 19.5 149.522C20.5915 148.21 25.2367 146.873 26.298 145.803C40.0076 131.98 63.218 129.142 80.1812 139.274C84.6874 141.966 89.0544 144.89 93.4896 147.859C93.1798 150.455 93.4623 153.03 93.0001 155.5C86.5629 155.532 107.289 176.495 101 176.5C98.4552 176.503 56.7475 165.342 57.5 168C66.235 184.725 35 158.105 74.807 158.276C72.3928 163.447 73.3521 161.463 71 166.5C90.0242 166.5 105.529 173.422 124.589 173.422C121.858 168.301 119.239 163.39 116.524 158.298C117.863 158.219 118.853 158.161 119.809 158.105C120.091 155.414 127.097 174.508 124.589 174.5C118.3 174.481 92.8037 178.186 86.5 178C86.3558 176.25 88.003 147.36 88 145.803C94.1388 148.544 110.685 153.497 117.013 151.418C121.087 150.08 125.27 149.149 129.613 149.522C131.522 149.686 133.418 149.995 135.322 150.228C135.324 150.219 135.305 150.22 135.302 150.31C135.388 150.491 135.497 150.533 135.699 150.627C136.59 151.533 137.407 152.335 138.228 153.13C138.231 153.124 138.218 153.13 138.247 153.255C140.237 155.036 142.581 155.294 145.102 155.326C148.419 158.124 154.368 161.3 156.5 165ZM55.6942 148.79C55.7617 148.496 55.8424 148.204 55.8946 147.907C56.5296 144.295 55.3674 141.324 52.5035 139.111C49.5563 136.834 46.2913 136.532 42.9881 138.268C39.7729 139.959 38.1026 142.764 38.1075 146.371C38.1136 150.802 41.4857 154.446 46.0003 155.183C49.9852 155.834 53.9825 153.279 55.6942 148.79Z" fill="#E3FC87"/>
<path d="M31.5 29.1515C38.5348 22.5462 48.6963 15.3811 57.5 11.4999C67.9581 6.88944 80.1256 3.91439 91.5 3.49994C116.825 2.57719 140.275 11.6505 159 29.1515C161.813 31.7804 163.996 34.2708 166.5 37.3227C165.467 38.6821 162.938 40.4934 161.925 41.6091C148.837 56.0223 125.774 59.8783 108.381 50.5023C103.761 48.0117 99.2694 45.2821 94.7079 42.5114C94.9032 39.9047 94.5077 37.3448 94.8607 34.856C101.29 34.5413 79.6617 14.5106 85.9445 14.2284C88.4867 14.1142 130.645 23.4289 129.776 20.806C120.314 4.48221 152.69 29.7018 112.914 31.2825C115.098 26.0103 114.227 28.0351 116.355 22.8986C97.3497 23.7357 81.5553 17.5033 62.5142 18.342C65.4673 23.3373 68.2999 28.1286 71.2366 33.0961C69.9024 33.2337 68.9155 33.3354 67.9629 33.4337C67.7997 36.1349 59.9609 17.3669 62.4668 17.2644C68.7496 17.0073 94.0586 12.1834 100.364 12.0918C100.586 13.8341 100.211 42.7683 100.283 44.3242C94.0292 41.8555 77.2809 37.6355 71.0503 39.991C67.0391 41.5075 62.9015 42.6214 58.5466 42.4395C56.6324 42.3595 54.7243 42.1349 52.8116 41.9852C52.8098 41.9945 52.8287 41.9926 52.8284 41.9025C52.734 41.7254 52.6233 41.689 52.4178 41.6033C51.4877 40.7382 50.6358 39.9727 49.7811 39.2139C49.7783 39.2206 49.7909 39.2135 49.7561 39.0905C47.6903 37.3983 45.3364 37.2437 42.8168 37.3227C39.3803 34.6738 33.7924 32.7543 31.5 29.1515ZM132.426 39.9181C132.371 40.2152 132.303 40.5106 132.264 40.8098C131.789 44.4458 133.081 47.363 136.039 49.4478C139.084 51.5931 142.359 51.7511 145.582 49.8708C148.72 48.0406 150.265 45.1641 150.102 41.5611C149.901 37.1349 146.372 33.6429 141.829 33.105C137.819 32.6302 133.938 35.3581 132.426 39.9181Z" fill="#BFE0FF"/>
<path d="M162.235 83.9229C162.173 83.7226 162.111 83.5224 162.028 83.2189C166.082 82.9238 169.485 84.9421 171.029 88.4659C172.5 91.8247 171.795 95.7099 169.237 98.3389C166.457 101.196 162.837 101.809 158.65 100.054C158.614 99.8113 158.709 99.6253 159.023 99.4313C163.188 101.104 167.286 100.069 169.515 96.7721C171.323 94.0992 171.519 91.2211 170.092 88.3684C168.502 85.1889 165.74 83.84 162.235 83.9229Z" fill="#263A83"/>
<path d="M55.6388 148.924C53.9825 153.279 49.9852 155.833 46.0003 155.183C41.4857 154.445 38.1136 150.801 38.1075 146.371C38.1026 142.764 39.7729 139.958 42.9881 138.268C46.2913 136.531 49.5563 136.833 52.5035 139.11C55.3674 141.323 56.5296 144.294 55.8946 147.906C55.8424 148.203 55.7617 148.495 55.6388 148.924ZM53.9385 141.765C51.0594 138.059 47.0019 137.013 43.2276 139.005C39.8205 140.804 38.1493 144.868 39.2835 148.597C40.6683 153.15 45.6573 155.604 50.0005 153.869C54.778 151.961 56.5323 146.851 53.9385 141.765Z" fill="#BFE0FF"/>
<path d="M135.322 150.228C134.641 147.897 134.187 145.564 135.103 143.159C136.576 139.295 140.655 136.697 144.508 137.229C148.653 137.801 152.104 141.213 152.402 145.035C152.776 149.82 150.32 153.576 145.945 154.905C145.714 154.975 145.477 155.02 145.128 155.154C142.581 155.294 140.237 155.036 138.374 153.179C140.218 153.422 141.964 153.865 143.862 154.309C147.794 154.043 150.402 151.917 151.435 148.262C152.319 145.136 151.04 141.542 148.36 139.618C145.17 137.327 140.65 137.612 137.872 140.278C134.915 143.116 134.547 147.206 136.928 151.071C137.011 151.205 137.082 151.264 137.149 151.31C137.137 151.308 137.141 151.283 137.189 151.399C137.566 152.055 137.896 152.596 138.225 153.137C137.407 152.335 136.59 151.532 135.675 150.55C135.517 150.265 135.426 150.215 135.305 150.22C135.305 150.22 135.324 150.219 135.322 150.228Z" fill="#263A83"/>
<path d="M135.302 150.31C135.426 150.215 135.517 150.265 135.601 150.447C135.497 150.532 135.388 150.491 135.302 150.31Z" fill="#E36352"/>
<path d="M127.739 111.267C127.702 111.078 127.803 110.847 128.021 110.536C128.05 110.713 127.963 110.969 127.739 111.267Z" fill="#263A83"/>
<path d="M26.4636 76.4701C21.1313 76.4051 17.9286 74.35 16.5837 70.2547C15.3352 66.4531 16.8922 62.1609 20.3269 59.9354C23.6003 57.8145 28.0959 58.1923 31.116 60.8421C34.0159 63.3864 34.903 67.9699 33.1568 71.4837C32.8622 72.0766 32.4862 72.6292 32.0864 73.3085C30.2146 74.4209 28.4043 75.4251 26.4636 76.4701ZM26.644 75.6413C28.0758 74.8473 29.5076 74.0532 31.1202 73.0677C33.7043 69.9764 34.0215 66.1983 31.9632 63.0279C30.0406 60.0666 26.2953 58.6521 22.9428 59.6211C18.9376 60.7788 16.2766 64.9172 17.0348 68.8092C17.933 73.4198 21.5965 76.0885 26.644 75.6413Z" fill="#263A83"/>
<path d="M113.429 17.6074C113.505 17.7159 113.45 17.8142 113.288 17.9356C113.253 17.8562 113.293 17.7358 113.429 17.6074Z" fill="#6F72FE"/>
<path d="M101.17 39.0488C101.134 39.1289 101.102 39.213 101.069 39.2972C101.058 39.2278 101.046 39.1584 101.109 39.0746C101.183 39.0602 101.174 39.0529 101.17 39.0488Z" fill="#F7BBFD"/>
<path d="M43.9427 75.0868C42.1398 74.464 40.3368 73.8413 38.373 73.2029C42.4286 71.9556 46.4388 70.2765 50.169 67.6797C50.4258 71.441 50.5623 75.2521 50.578 79.1828C49.4923 78.4778 48.6002 77.5399 47.5425 76.8596C46.4248 76.1407 45.1493 75.6674 43.9427 75.0868Z" fill="#263A83"/>
<path d="M88.0325 98.8599C86.7963 98.7169 86.2224 98.9885 86.1782 100.264C86.1157 102.067 85.8032 103.861 85.5866 105.755C84.7327 105.755 83.9741 105.755 82.9251 105.755C83.1111 103.546 83.2953 101.359 83.486 99.0943C82.9503 98.9367 82.5066 98.8061 81.9341 98.6376C81.9721 97.999 82.0105 97.3528 82.0583 96.5498C83.8872 96.6656 84.0152 95.4428 84.0872 94.1199C84.1593 92.7967 84.316 91.4782 84.4461 90.0415C83.9105 89.9292 83.4085 89.8239 82.7254 89.6807C82.8264 88.9477 82.9223 88.2513 83.027 87.4908C83.5716 87.4131 84.0934 87.3387 84.6925 87.2532C84.9058 85.4427 85.1157 83.6615 85.3366 81.7872C86.2399 81.7872 87.0527 81.7872 87.993 81.7872C87.8515 83.6213 87.7181 85.3508 87.5735 87.2252C88.3507 87.2252 89.0404 87.2252 89.9465 87.2252C90.1631 85.4683 90.388 83.6434 90.6175 81.7812C91.5194 81.7812 92.2794 81.7812 93.2492 81.7812C93.0952 83.6214 92.9508 85.3463 92.7965 87.1895C93.3382 87.3001 93.8392 87.4023 94.4273 87.5224C94.3545 88.2588 94.2852 88.9598 94.2101 89.719C93.6271 89.8122 93.1112 89.8946 92.5096 89.9907C92.3113 92.0151 92.1179 93.9895 91.9133 96.0778C92.4667 96.2613 92.9447 96.4198 93.7534 96.6879C93.432 97.4212 93.1843 98.676 92.8122 98.7141C91.3176 98.867 91.5028 99.9002 91.3963 100.806C91.207 102.418 91.0643 104.035 90.892 105.75C89.9811 105.75 89.1707 105.75 88.1791 105.75C88.3549 103.947 88.5728 102.226 88.6612 100.499C88.6885 99.9639 88.3634 99.4113 88.0325 98.8599ZM87.062 90.9146C86.9157 92.6842 86.7693 94.4539 86.6194 96.2672C87.5877 96.2672 88.3289 96.2672 89.1472 96.2672C89.3291 94.0889 89.5007 92.0352 89.724 89.3607C88.5084 89.9288 87.8023 90.2587 87.062 90.9146Z" fill="#263A83"/>
<path d="M132.646 104.181C133.102 105.092 133.47 106.079 133.862 107.192C132.884 107.455 131.882 107.591 130.729 107.714C131.239 106.553 131.898 105.405 132.646 104.181Z" fill="#263A83"/>
<path d="M60.8149 108.393C60.73 108.432 60.6113 108.376 60.4639 108.225C60.5505 108.186 60.6658 108.242 60.8149 108.393Z" fill="#E36352"/>
<path d="M160.765 84.031C154.125 86.5227 152.536 93.6346 157.685 98.4075C157.682 98.6612 157.57 98.8434 157.396 99.0804C151.573 94.3366 153.118 86.2544 160.478 83.3848C160.674 83.5387 160.727 83.734 160.765 84.031Z" fill="#263A83"/>
<path d="M131.763 34.0185C134.41 28.2349 139.005 25.3096 143.917 26.1385C149.196 27.0293 152.88 31.1755 153.85 37.3187C154.918 44.0811 150.15 51.1022 143.942 51.9087C137.364 52.7632 131.345 47.5187 131.012 40.4277C130.915 38.377 131.434 36.2898 131.763 34.0185Z" fill="#BFE0FF"/>
<path d="M38.5404 39.0652C40.4137 35.4118 43.6662 33.5639 47.1435 34.0875C50.8804 34.6502 53.488 37.2693 54.1746 41.1499C54.9305 45.4217 51.5554 49.8569 47.1611 50.3663C42.5048 50.9061 38.2446 47.5932 38.0083 43.1139C37.94 41.8184 38.3074 40.5 38.5404 39.0652Z" fill="#BFE0FF"/>
<path d="M54.0069 141.882C56.5322 146.851 54.778 151.962 50.0005 153.87C45.6572 155.605 40.6683 153.15 39.2835 148.597C38.1493 144.868 39.8205 140.804 43.2276 139.006C47.0019 137.014 51.0594 138.059 54.0069 141.882Z" fill="#263A83"/>
<path d="M136.543 153.933C134.183 150.133 134.551 146.044 137.508 143.205C140.285 140.54 144.805 140.255 147.996 142.545C150.676 144.469 151.954 148.063 151.071 151.189C150.037 154.845 147.43 156.97 143.381 157.173C141.001 156.143 138.889 155.177 136.777 154.211C136.777 154.211 136.772 154.235 136.783 154.162C136.73 154.005 136.646 153.954 136.543 153.933Z" fill="#E3FC87"/>
<path d="M136.928 151.071C137.01 151.026 137.094 151.078 137.16 151.237C137.082 151.264 137.011 151.205 136.928 151.071Z" fill="#716CE8"/>
<g filter="url(#filter0_d_1479_12844)">
<path d="M58 43C58 40.2386 60.2386 38 63 38H124.354C127.116 38 129.354 40.2386 129.354 43V149.611C129.354 152.373 127.116 154.611 124.354 154.611H63C60.2386 154.611 58 152.373 58 149.611V43Z" fill="white"/>
</g>
<path d="M61.3035 46.3037C61.3035 43.5423 63.5421 41.3037 66.3035 41.3037H121.381C124.143 41.3037 126.381 43.5423 126.381 46.3037V146.638C126.381 149.4 124.143 151.638 121.381 151.638H66.3035C63.5421 151.638 61.3035 149.4 61.3035 146.638V46.3037Z" fill="#263A83"/>
<path d="M96.5582 100.575L97.7576 109.569L95.2572 109.903L94.5953 104.94L93.5604 110.129L91.4682 110.408L89.0918 105.635L89.7587 110.636L87.2583 110.97L86.0588 101.976L88.9804 102.92L92.1196 107.114L93.5474 100.977L96.5582 100.575Z" fill="white"/>
<path d="M100.749 102.055L100.945 103.522L103.815 103.139L104.069 105.04L101.198 105.423L101.403 107.814L104.791 105.806L104.935 108.612L99.181 109.379L97.9815 100.385L103.735 99.6182L104.002 101.621L100.749 102.055Z" fill="white"/>
<path d="M84.4565 83.5163C84.1977 83.5527 83.9515 83.5254 83.7178 83.4344C83.4842 83.3434 83.289 83.1998 83.1322 83.0038C82.975 82.8051 82.8772 82.5697 82.839 82.2977C82.8011 82.0284 82.8305 81.7778 82.9271 81.5461C83.0234 81.3117 83.1713 81.1186 83.3708 80.9667C83.5702 80.8148 83.7993 80.7206 84.0581 80.6842C84.3196 80.6474 84.5658 80.6747 84.7967 80.7661C85.0304 80.8571 85.2244 81.0022 85.379 81.2013C85.5359 81.3973 85.6332 81.63 85.6711 81.8994C85.7093 82.1714 85.6803 82.4246 85.584 82.6589C85.49 82.8903 85.3433 83.0819 85.1438 83.2338C84.9444 83.3858 84.7152 83.4799 84.4565 83.5163ZM84.3868 83.0212C84.5532 82.9978 84.6945 82.9402 84.8109 82.8484C84.9269 82.754 85.0107 82.6318 85.0623 82.4819C85.1139 82.3319 85.1267 82.1645 85.1007 81.9796C85.0747 81.7948 85.0164 81.6387 84.9258 81.5114C84.8348 81.3815 84.7207 81.2885 84.5836 81.2323C84.4464 81.1762 84.2947 81.1599 84.1283 81.1833C83.962 81.2067 83.8193 81.2644 83.7003 81.3566C83.5839 81.4484 83.4999 81.5692 83.4483 81.7192C83.3964 81.8666 83.3834 82.0326 83.4094 82.2175C83.4354 82.4023 83.4938 82.5597 83.5848 82.6897C83.6758 82.8196 83.7901 82.9139 83.9276 82.9727C84.0674 83.0284 84.2205 83.0446 84.3868 83.0212ZM88.5878 80.0875L88.6507 80.5351L87.4981 80.6972L87.5978 81.4062L88.4811 81.282L88.543 81.7217L87.6597 81.8459L87.824 83.0144L87.2695 83.0924L86.8806 80.3276L88.5878 80.0875ZM91.6785 79.6528L91.7414 80.1004L90.5888 80.2625L90.6885 80.9715L91.5718 80.8473L91.6336 81.287L90.7503 81.4112L90.9147 82.5797L90.3601 82.6577L89.9713 79.8929L91.6785 79.6528ZM93.9435 81.7053L94.8545 81.5772L94.9164 82.0169L93.4508 82.223L93.0619 79.4582L93.6165 79.3802L93.9435 81.7053ZM98.0686 78.754L97.3873 80.6878L97.5227 81.6503L96.9681 81.7283L96.8327 80.7658L95.6405 79.0955L96.2663 79.0075L97.0382 80.1875L97.4507 78.8409L98.0686 78.754Z" fill="white"/>
<path d="M75.6391 100.478C74.6281 100.615 73.7659 100.489 73.0522 100.099C72.3375 99.7021 71.8951 99.0588 71.7249 98.1696L74.3015 97.822C74.3672 98.1227 74.4876 98.3324 74.6626 98.4511C74.8376 98.5698 75.0484 98.6124 75.295 98.5792C75.5169 98.5492 75.6905 98.4714 75.8158 98.3457C75.9482 98.2107 76.0011 98.0445 75.9745 97.8473C75.9401 97.5925 75.7943 97.4113 75.5371 97.3038C75.2799 97.1962 74.8726 97.0922 74.315 96.9916C73.7224 96.8791 73.2378 96.7604 72.861 96.6355C72.4915 96.5012 72.1524 96.2834 71.8439 95.9819C71.5426 95.6711 71.3547 93.5841 71.2804 93.0334C71.205 92.4745 71.2804 91.979 71.5067 91.5467C71.7318 91.1063 72.077 90.7501 72.5424 90.4781C73.0079 90.2061 73.5529 90.0279 74.1775 89.9436C75.1885 89.8072 76.0261 89.9369 76.6904 90.3327C77.3618 90.7191 77.7757 91.3369 77.9322 92.1861L75.3062 92.5405C75.2625 92.2786 75.1537 92.0924 74.9798 91.982C74.8141 91.8704 74.6121 91.8307 74.3737 91.8629C74.1929 91.8873 74.0522 91.9607 73.9515 92.083C73.8509 92.2054 73.8139 92.3652 73.8405 94.2187C73.8626 94.3831 73.9437 94.5186 74.0836 94.6252C74.2306 94.7226 74.4048 94.8037 74.606 94.8686C74.8061 94.9253 75.1 94.9944 75.4876 95.076C76.0638 95.1908 76.5413 95.3188 76.9203 95.4602C77.3063 95.5922 77.6494 95.8095 77.9497 96.1121C78.2571 96.4054 78.4451 96.8068 78.5139 97.3164C78.5837 97.8342 78.5149 98.3163 78.3073 98.7627C78.108 99.2081 77.7778 99.5832 77.3168 99.888C76.8641 100.192 76.3048 100.389 75.6391 100.478Z" fill="white"/>
<path d="M87.3788 89.5672L88.1423 98.7036L85.7259 99.0296L85.2552 95.5407L82.3087 95.9382L82.7794 99.4272L80.363 99.7532L80.101 90.4456L82.2431 88.8332L82.0475 94.0026L84.994 93.6051L85.1896 88.4357L87.3788 89.5672Z" fill="white"/>
<path d="M95.2022 96.3075L92.1201 96.7233L91.8429 98.2043L89.3032 98.547L91.9353 87.5255L94.7216 87.1496L98.414 97.3177L95.862 97.662L95.2022 96.3075ZM94.3486 94.5397L93.0324 91.8552L92.487 94.7909L94.3486 94.5397Z" fill="white"/>
<path d="M104.712 96.4679L101.474 93.026L101.988 96.8355L99.5714 97.1615L99.0351 86.5676L101.451 86.2416L101.321 91.8918L104.151 85.8773L106.938 85.5013L103.677 92.0509L107.634 96.0737L104.712 96.4679Z" fill="white"/>
<path d="M111.028 86.9203L111.219 88.3381L113.993 87.9638L114.241 89.8008L111.467 90.175L111.973 93.4431L115.083 92.5787V95.076L109.523 95.8262L108.35 85.3107L113.91 84.5605L114.172 86.4961L111.028 86.9203Z" fill="white"/>
<path d="M81.644 76.3825C81.9512 74.469 66.785 84.4185 76.0424 81.4612C75.6799 81.4484 71.6477 83.706 71.6614 83.3179C70.9012 81.5852 80.1562 74.1957 81.3009 75.5676C81.6634 75.5804 81.6578 75.9944 81.644 76.3825Z" fill="white"/>
<path d="M78.9207 75.2829C79.2278 73.3694 64.0616 83.3189 73.319 80.3616C72.9565 80.3488 68.9243 82.6064 68.938 82.2183C68.1778 80.4856 77.4328 73.0961 78.5775 74.468C78.94 74.4808 78.9344 74.8948 78.9207 75.2829Z" fill="white"/>
<path d="M105.272 116.371C105.417 118.304 117.857 105.103 109.54 110.13C109.896 110.058 113.293 106.926 113.37 107.306C114.512 108.815 107.227 118.153 105.795 117.084C105.439 117.156 105.348 116.752 105.272 116.371Z" fill="white"/>
<path d="M108.177 116.809C108.323 118.741 120.762 105.54 112.445 110.568C112.801 110.496 116.198 107.363 116.275 107.744C117.417 109.252 110.132 118.59 108.7 117.522C108.344 117.594 108.254 117.19 108.177 116.809Z" fill="white"/>
<path d="M154.54 76.0652C156.414 72.4118 159.666 70.5639 163.143 71.0875C166.88 71.6502 169.488 74.2693 170.175 78.1499C170.93 82.4217 167.555 86.8569 163.161 87.3663C158.505 87.9061 154.245 84.5932 154.008 80.1139C153.94 78.8184 154.307 77.5 154.54 76.0652Z" fill="#263A83"/>
<path d="M154.54 76.0652C156.414 72.4118 159.666 70.5639 163.143 71.0875C166.88 71.6502 169.488 74.2693 170.175 78.1499C170.93 82.4217 167.555 86.8569 163.161 87.3663C158.505 87.9061 154.245 84.5932 154.008 80.1139C153.94 78.8184 154.307 77.5 154.54 76.0652Z" fill="#BFE0FF"/>
<circle cx="95" cy="96.001" r="93" stroke="#BFE0FF" stroke-width="3"/>
<defs>
<filter id="filter0_d_1479_12844" x="50.4938" y="38" width="86.3665" height="131.624" filterUnits="userSpaceOnUse" color-interpolation-filters="sRGB">
<feFlood flood-opacity="0" result="BackgroundImageFix"/>
<feColorMatrix in="SourceAlpha" type="matrix" values="0 0 0 0 0 0 0 0 0 0 0 0 0 0 0 0 0 0 127 0" result="hardAlpha"/>
<feOffset dy="7.50619"/>
<feGaussianBlur stdDeviation="3.7531"/>
<feComposite in2="hardAlpha" operator="out"/>
<feColorMatrix type="matrix" values="0 0 0 0 0 0 0 0 0 0 0 0 0 0 0 0 0 0 0.25 0"/>
<feBlend mode="normal" in2="BackgroundImageFix" result="effect1_dropShadow_1479_12844"/>
<feBlend mode="normal" in="SourceGraphic" in2="effect1_dropShadow_1479_12844" result="shape"/>
</filter>
</defs>
</svg>
