<svg width="12" height="11" viewBox="0 0 12 11" fill="none" xmlns="http://www.w3.org/2000/svg">
<path d="M6.4451 0.0515331C6.54331 0.1 6.6228 0.179489 6.67126 0.277695L8.12725 3.22785L11.3829 3.70093C11.6551 3.74048 11.8437 3.99317 11.8041 4.26533C11.7884 4.3737 11.7373 4.47387 11.6589 4.55031L9.30308 6.84668L9.85922 10.0892C9.90571 10.3603 9.72366 10.6177 9.4526 10.6642C9.34466 10.6827 9.23363 10.6651 9.1367 10.6142L6.22472 9.08325L3.31274 10.6142C3.06931 10.7421 2.76823 10.6485 2.64025 10.4051C2.58929 10.3082 2.57171 10.1972 2.59022 10.0892L3.14636 6.84668L0.790517 4.55031C0.593579 4.35834 0.58955 4.04307 0.781516 3.84613C0.857959 3.76771 0.958121 3.71668 1.0665 3.70093L4.32219 3.22785L5.77818 0.277695C5.89989 0.0310749 6.19848 -0.0701811 6.4451 0.0515331Z" fill="#263A83" fill-opacity="0.3"/>
</svg>
